<svg width="617" height="557" viewBox="0 0 617 557" fill="none" xmlns="http://www.w3.org/2000/svg">
<path d="M543.177 474.805C530.561 486.594 518.624 494.197 509.193 500.204C398.329 570.812 267.147 550.23 239.267 545.204C198.098 537.781 118.518 523.434 60.9827 463.377C-26.0628 372.515 -12.5086 229.364 55.0098 134.868C67.3599 117.583 132.597 21.6484 265.192 6.26344C345.436 -3.04739 438.976 15.7315 506.715 66.1063C648.904 171.848 638.782 385.464 543.177 474.805Z" fill="url(#paint0_linear_118_307)"/>
<path d="M117.551 157.813C117.608 155.142 120.097 152.992 123.148 152.992H308.219C311.312 152.992 314.596 155.208 314.596 157.916V536.202C314.596 538.224 313.288 540.162 311.654 541.59C310.02 543.017 307.61 543.816 305.301 543.811L118.203 543.364C115.875 543.358 113.599 542.534 111.97 541.077C110.342 539.62 109.425 537.646 109.468 535.607L117.551 157.813Z" fill="#BDD0FB"/>
<g opacity="0.52">
<path d="M223.834 179.8L284.375 179.617L284.352 172.982L223.879 173.15L223.834 179.8Z" fill="#D2B7E5"/>
<path d="M223.668 204.236L284.458 203.993L284.435 197.305L223.714 197.531L223.668 204.236Z" fill="#D2B7E5"/>
<path d="M223.501 228.874L284.542 228.571L284.519 221.827L223.547 222.114L223.501 228.874Z" fill="#D2B7E5"/>
<path d="M223.332 253.717L284.626 253.352L284.603 246.552L223.378 246.9L223.332 253.717Z" fill="#D2B7E5"/>
<path d="M223.162 278.767L284.711 278.339L284.688 271.483L223.209 271.893L223.162 278.767Z" fill="#D2B7E5"/>
<path d="M222.817 329.497L284.883 328.942L284.86 321.97L222.865 322.507L222.817 329.497Z" fill="#D2B7E5"/>
<path d="M222.29 407.212L285.147 406.457L285.123 399.307L222.338 400.043L222.29 407.212Z" fill="#D2B7E5"/>
<path d="M222.99 304.026L284.797 303.535L284.773 296.621L223.037 297.094L222.99 304.026Z" fill="#D2B7E5"/>
<path d="M222.643 355.184L284.97 354.563L284.946 347.532L222.691 348.135L222.643 355.184Z" fill="#D2B7E5"/>
<path d="M222.467 381.088L285.059 380.4L285.034 373.31L222.515 373.979L222.467 381.088Z" fill="#D2B7E5"/>
<path d="M222.111 433.56L285.237 432.736L285.212 425.524L222.16 426.329L222.111 433.56Z" fill="#D2B7E5"/>
<path d="M221.93 460.134L285.327 459.24L285.302 451.966L221.98 452.841L221.93 460.134Z" fill="#D2B7E5"/>
<path d="M221.748 486.937L285.418 485.972L285.393 478.636L221.798 479.581L221.748 486.937Z" fill="#D2B7E5"/>
<path d="M221.564 513.972L285.509 512.934L285.484 505.535L221.615 506.553L221.564 513.972Z" fill="#D2B7E5"/>
<path d="M144.46 180.041L205.381 179.856L205.447 173.201L144.595 173.369L144.46 180.041Z" fill="#D2B7E5"/>
<path d="M143.966 204.555L205.139 204.31L205.205 197.6L144.102 197.828L143.966 204.555Z" fill="#D2B7E5"/>
<path d="M143.468 229.272L204.895 228.967L204.962 222.201L143.605 222.489L143.468 229.272Z" fill="#D2B7E5"/>
<path d="M142.966 254.195L204.649 253.828L204.717 247.006L143.104 247.357L142.966 254.195Z" fill="#D2B7E5"/>
<path d="M142.459 279.327L204.401 278.897L204.469 272.018L142.598 272.431L142.459 279.327Z" fill="#D2B7E5"/>
<path d="M141.433 330.225L203.898 329.666L203.967 322.671L141.574 323.212L141.433 330.225Z" fill="#D2B7E5"/>
<path d="M139.861 408.203L203.128 407.442L203.199 400.268L140.006 401.009L139.861 408.203Z" fill="#D2B7E5"/>
<path d="M141.948 304.669L204.15 304.175L204.219 297.239L142.088 297.715L141.948 304.669Z" fill="#D2B7E5"/>
<path d="M140.913 355.998L203.644 355.373L203.713 348.319L141.056 348.925L140.913 355.998Z" fill="#D2B7E5"/>
<path d="M140.39 381.989L203.387 381.297L203.458 374.183L140.533 374.857L140.39 381.989Z" fill="#D2B7E5"/>
<path d="M139.328 434.641L202.867 433.811L202.939 426.575L139.474 427.385L139.328 434.641Z" fill="#D2B7E5"/>
<path d="M138.791 461.306L202.604 460.406L202.676 453.108L138.938 453.988L138.791 461.306Z" fill="#D2B7E5"/>
<path d="M138.248 488.203L202.338 487.231L202.411 479.87L138.397 480.822L138.248 488.203Z" fill="#D2B7E5"/>
<path d="M137.701 515.333L202.07 514.288L202.144 506.863L137.852 507.887L137.701 515.333Z" fill="#D2B7E5"/>
</g>
<path d="M11.3482 262.156C11.4293 259.066 14.9475 256.523 19.2599 256.523H182.262C186.632 256.523 190.924 259.199 190.924 262.331V542.265C190.924 543.771 189.713 545.216 188.224 546.28C186.735 547.344 184.53 547.94 182.427 547.936L12.0002 547.602C9.87941 547.598 7.80312 546.984 6.3199 545.898C4.83667 544.811 4.00034 543.31 4.03992 541.791L11.3482 262.156Z" fill="#BDD0FB"/>
<path d="M131.39 289.51L177.826 289.466L178.195 272.409H131.714L131.39 289.51Z" fill="url(#paint1_linear_118_307)"/>
<path d="M79.3413 289.502L125.73 289.457L126.048 272.409H79.6142L79.3413 289.502Z" fill="url(#paint2_linear_118_307)"/>
<path d="M27.3445 289.493L73.6871 289.449L73.9544 272.409H27.5671L27.3445 289.493Z" fill="url(#paint3_linear_118_307)"/>
<path d="M130.81 320.127L177.165 320.149L177.532 303.203L131.132 303.189L130.81 320.127Z" fill="url(#paint4_linear_118_307)"/>
<path d="M78.8517 320.103L125.16 320.125L125.477 303.187L79.1236 303.174L78.8517 320.103Z" fill="url(#paint5_linear_118_307)"/>
<path d="M26.9454 320.08L73.2072 320.101L73.4736 303.172L27.1671 303.158L26.9454 320.08Z" fill="url(#paint6_linear_118_307)"/>
<path d="M130.232 350.534L176.506 350.569L176.872 333.682L130.553 333.654L130.232 350.534Z" fill="url(#paint7_linear_118_307)"/>
<path d="M78.3638 350.495L124.592 350.53L124.907 333.651L78.6347 333.624L78.3638 350.495Z" fill="url(#paint8_linear_118_307)"/>
<path d="M26.5478 350.456L72.7291 350.491L72.9944 333.621L26.7686 333.594L26.5478 350.456Z" fill="url(#paint9_linear_118_307)"/>
<path d="M129.656 380.836L175.849 380.884L176.214 364.055L129.975 364.014L129.656 380.836Z" fill="url(#paint10_linear_118_307)"/>
<path d="M77.8774 380.782L124.025 380.83L124.34 364.009L78.1474 363.969L77.8774 380.782Z" fill="url(#paint11_linear_118_307)"/>
<path d="M26.1512 380.727L72.2525 380.776L72.5171 363.964L26.3712 363.923L26.1512 380.727Z" fill="url(#paint12_linear_118_307)"/>
<path d="M129.081 411.032L175.195 411.094L175.558 394.324L129.4 394.269L129.081 411.032Z" fill="url(#paint13_linear_118_307)"/>
<path d="M77.3929 410.963L123.461 411.025L123.774 394.263L77.662 394.208L77.3929 410.963Z" fill="url(#paint14_linear_118_307)"/>
<path d="M25.7561 410.894L71.7778 410.956L72.0413 394.202L25.9754 394.148L25.7561 410.894Z" fill="url(#paint15_linear_118_307)"/>
<path d="M128.509 441.125L174.543 441.2L174.905 424.487L128.827 424.42L128.509 441.125Z" fill="url(#paint16_linear_118_307)"/>
<path d="M76.9099 441.041L122.898 441.116L123.21 424.411L77.178 424.344L76.9099 441.041Z" fill="url(#paint17_linear_118_307)"/>
<path d="M25.3625 440.957L71.3045 441.032L71.5672 424.336L25.5811 424.268L25.3625 440.957Z" fill="url(#paint18_linear_118_307)"/>
<path d="M127.938 471.114L173.893 471.202L174.254 454.547L128.255 454.466L127.938 471.114Z" fill="url(#paint19_linear_118_307)"/>
<path d="M76.4287 471.015L122.337 471.103L122.648 454.456L76.6958 454.375L76.4287 471.015Z" fill="url(#paint20_linear_118_307)"/>
<path d="M24.97 470.916L70.8329 471.004L71.0949 454.365L25.188 454.285L24.97 470.916Z" fill="url(#paint21_linear_118_307)"/>
<path d="M127.37 500.999L173.245 501.101L173.605 484.503L127.686 484.409L127.37 500.999Z" fill="url(#paint22_linear_118_307)"/>
<path d="M75.9492 500.886L121.779 500.987L122.089 484.397L76.2154 484.304L75.9492 500.886Z" fill="url(#paint23_linear_118_307)"/>
<path d="M24.5791 500.773L70.363 500.874L70.6237 484.292L24.7961 484.198L24.5791 500.773Z" fill="url(#paint24_linear_118_307)"/>
<path d="M126.804 530.783L172.6 530.897L172.958 514.356L127.118 514.249L126.804 530.783Z" fill="url(#paint25_linear_118_307)"/>
<path d="M75.4712 530.655L121.222 530.769L121.531 514.236L75.7364 514.129L75.4712 530.655Z" fill="url(#paint26_linear_118_307)"/>
<path d="M24.1895 530.527L69.8945 530.641L70.1547 514.116L24.4057 514.009L24.1895 530.527Z" fill="url(#paint27_linear_118_307)"/>
<path d="M436.831 268.841C436.913 265.751 440.431 263.208 444.743 263.208H607.745C612.115 263.208 616.407 265.884 616.407 269.016V548.95C616.407 550.456 615.196 551.901 613.708 552.965C612.219 554.029 610.013 554.625 607.911 554.621L437.484 554.287C435.363 554.283 433.287 553.669 431.803 552.583C430.32 551.496 429.484 549.995 429.524 548.476L436.831 268.841Z" fill="#BDD0FB"/>
<g opacity="0.5">
<path d="M556.873 296.195L603.309 296.151L603.677 279.093H557.197L556.873 296.195Z" fill="#D2B7E5"/>
<path d="M504.824 296.187L551.213 296.142L551.531 279.093H505.097L504.824 296.187Z" fill="#D2B7E5"/>
<path d="M452.828 296.178L499.17 296.133L499.437 279.093H453.05L452.828 296.178Z" fill="#D2B7E5"/>
<path d="M556.293 326.812L602.648 326.833L603.015 309.888L556.615 309.874L556.293 326.812Z" fill="#D2B7E5"/>
<path d="M504.335 326.788L550.643 326.809L550.96 309.872L504.607 309.858L504.335 326.788Z" fill="#D2B7E5"/>
<path d="M452.429 326.765L498.69 326.786L498.957 309.857L452.65 309.843L452.429 326.765Z" fill="#D2B7E5"/>
<path d="M555.715 357.219L601.989 357.254L602.355 340.367L556.036 340.339L555.715 357.219Z" fill="#D2B7E5"/>
<path d="M503.847 357.18L550.075 357.214L550.39 340.336L504.118 340.309L503.847 357.18Z" fill="#D2B7E5"/>
<path d="M452.031 357.141L498.212 357.176L498.478 340.305L452.252 340.278L452.031 357.141Z" fill="#D2B7E5"/>
<path d="M555.139 387.52L601.332 387.569L601.697 370.74L555.459 370.699L555.139 387.52Z" fill="#D2B7E5"/>
<path d="M503.361 387.466L549.508 387.514L549.823 370.694L503.631 370.653L503.361 387.466Z" fill="#D2B7E5"/>
<path d="M451.634 387.412L497.736 387.46L498 370.648L451.854 370.608L451.634 387.412Z" fill="#D2B7E5"/>
<path d="M554.564 417.717L600.678 417.779L601.041 401.008L554.883 400.954L554.564 417.717Z" fill="#D2B7E5"/>
<path d="M502.876 417.648L548.944 417.709L549.257 400.947L503.145 400.893L502.876 417.648Z" fill="#D2B7E5"/>
<path d="M451.239 417.579L497.261 417.64L497.524 400.887L451.459 400.833L451.239 417.579Z" fill="#D2B7E5"/>
<path d="M553.992 447.81L600.026 447.885L600.388 431.172L554.31 431.104L553.992 447.81Z" fill="#D2B7E5"/>
<path d="M502.393 447.726L548.381 447.8L548.693 431.096L502.661 431.029L502.393 447.726Z" fill="#D2B7E5"/>
<path d="M450.845 447.642L496.788 447.717L497.05 431.02L451.064 430.953L450.845 447.642Z" fill="#D2B7E5"/>
<path d="M553.422 477.798L599.376 477.887L599.737 461.231L553.738 461.151L553.422 477.798Z" fill="#D2B7E5"/>
<path d="M501.912 477.7L547.82 477.788L548.131 461.141L502.179 461.06L501.912 477.7Z" fill="#D2B7E5"/>
<path d="M450.453 477.601L496.316 477.689L496.578 461.05L450.671 460.97L450.453 477.601Z" fill="#D2B7E5"/>
<path d="M552.853 507.684L598.728 507.786L599.088 491.188L553.169 491.094L552.853 507.684Z" fill="#D2B7E5"/>
<path d="M501.432 507.571L547.262 507.672L547.572 491.082L501.698 490.989L501.432 507.571Z" fill="#D2B7E5"/>
<path d="M450.062 507.458L495.846 507.558L496.107 490.977L450.279 490.883L450.062 507.458Z" fill="#D2B7E5"/>
<path d="M552.287 537.468L598.083 537.582L598.441 521.041L552.601 520.934L552.287 537.468Z" fill="#D2B7E5"/>
<path d="M500.954 537.339L546.705 537.454L547.014 520.921L501.22 520.814L500.954 537.339Z" fill="#D2B7E5"/>
<path d="M449.672 537.212L495.378 537.326L495.638 520.801L449.889 520.694L449.672 537.212Z" fill="#D2B7E5"/>
</g>
<path d="M274.788 344.992C261.485 307.325 235.746 277.307 205.258 259.66C178.003 243.885 158.367 219.316 151.097 190.937C150.333 187.954 149.424 184.962 148.368 181.972C132.369 136.671 88.4865 108.827 50.3542 119.78C12.2214 130.732 -5.72134 176.335 10.2781 221.635C13.5492 230.898 17.9873 239.429 23.3038 247.047C40.2712 271.358 46.9108 300.517 40.6679 328.72C35.0879 353.924 36.602 382.302 46.5756 410.542C61.4506 452.659 91.8737 485.217 127.1 501.607C140.425 507.806 152.44 516.143 162.389 526.217C178.923 542.957 202.224 550.826 223.633 544.677C246.728 538.043 261.156 516.953 262.195 492.345C262.782 478.421 266.413 464.772 272.331 451.869C286.3 421.408 288.238 383.075 274.788 344.992Z" fill="#91B3FA"/>
<path opacity="0.57" d="M80.7267 164.135C96.282 192.643 110.804 221.58 124.99 250.654C128.539 257.921 131.959 265.238 135.404 272.546L140.571 283.508L145.635 294.509C148.979 301.855 152.437 309.159 155.689 316.54L165.446 338.68C171.741 353.515 178.176 368.301 184.163 383.242C187.169 390.707 190.336 398.119 193.172 405.641L201.796 428.165C212.955 458.3 223.276 488.704 231.863 519.521L230.388 519.87L222.985 497.035L221.149 491.325L219.154 485.656L215.14 474.326L211.151 462.991C209.829 459.211 208.351 455.475 206.958 451.715C204.117 444.212 201.342 436.689 198.447 429.202C186.65 399.323 174.411 369.585 161.49 340.08C154.904 325.372 148.459 310.614 141.759 295.946L136.768 284.934L131.673 273.959C128.282 266.64 124.891 259.322 121.417 252.034C114.608 237.406 107.682 222.82 100.624 208.286C93.6507 193.719 86.5228 179.208 79.3482 164.723L80.7267 164.135Z" fill="#D2B7E5"/>
<path d="M386.076 270.122C379.859 228.986 359.309 193.728 331.406 170.491C306.463 149.718 291.117 121.095 289.269 90.5518C289.075 87.3414 288.734 84.0983 288.24 80.8323C280.763 31.3591 241.089 -4.61538 199.625 0.481119C158.16 5.57742 130.608 49.8149 138.086 99.2881C139.614 109.405 142.491 118.954 146.454 127.703C159.101 155.623 160.145 186.87 148.105 215.022C137.346 240.18 133.264 269.782 137.925 300.622C144.876 346.619 169.748 385.269 202.782 407.981C215.277 416.571 225.998 427.158 234.246 439.205C247.952 459.223 270.394 471.171 293.673 468.31C318.786 465.223 337.844 445.766 343.806 420.483C347.179 406.175 353.634 392.651 362.296 380.271C382.744 351.047 392.361 311.712 386.076 270.122Z" fill="#7D97F4"/>
<path opacity="0.57" d="M222.098 51.3267C232.457 83.3576 241.665 115.663 250.5 148.055C252.712 156.152 254.78 164.28 256.877 172.402L260.021 184.585L263.051 196.793C265.036 204.938 267.146 213.059 269.029 221.225L274.68 245.721C278.216 262.094 281.906 278.441 285.104 294.874C286.716 303.087 288.505 311.272 289.932 319.516L294.338 344.224C299.844 377.219 304.433 410.355 307.154 443.636L305.564 443.756L302.477 418.925L301.721 412.718L300.792 406.528L298.91 394.153L297.053 381.777C296.443 377.651 295.662 373.544 294.975 369.428C293.54 361.201 292.177 352.966 290.682 344.749C284.469 311.915 277.771 279.154 270.326 246.522C266.464 230.232 262.758 213.913 258.771 197.646L255.819 185.439L252.752 173.254C250.713 165.13 248.674 157.005 246.544 148.899C242.438 132.655 238.202 116.436 233.82 100.249C229.532 84.0408 225.073 67.8653 220.56 51.7099L222.098 51.3267Z" fill="#D2B7E5"/>
<path d="M576.652 552.856H214.708C211.879 552.856 209.585 550.788 209.585 548.237V107.152C209.585 104.601 211.879 102.533 214.708 102.533H576.653C579.481 102.533 581.775 104.601 581.775 107.152V548.237C581.775 550.788 579.481 552.856 576.652 552.856Z" fill="url(#paint28_linear_118_307)"/>
<path d="M518.414 493.536H272.153C262.818 493.536 255.25 486.712 255.25 478.293V185.43C255.25 177.011 262.818 170.187 272.153 170.187H518.414C527.749 170.187 535.316 177.011 535.316 185.43V478.293C535.316 486.712 527.749 493.536 518.414 493.536Z" fill="#7D97F4"/>
<path d="M509.096 471.041H281.693C278.893 471.041 276.623 468.994 276.623 466.469V201.359C276.623 198.834 278.893 196.786 281.693 196.786H509.096C511.896 196.786 514.166 198.834 514.166 201.359V466.469C514.166 468.994 511.896 471.041 509.096 471.041Z" fill="url(#paint29_linear_118_307)"/>
<path d="M395.001 147.104C401.151 147.104 406.136 142.609 406.136 137.063C406.136 131.518 401.151 127.022 395.001 127.022C388.852 127.022 383.867 131.518 383.867 137.063C383.867 142.609 388.852 147.104 395.001 147.104Z" fill="url(#paint30_linear_118_307)"/>
<path d="M466.934 299.161L323.688 301.309C312.786 301.472 303.916 309.118 303.916 318.385V399.739C303.916 409.006 312.786 416.197 323.688 415.802L466.934 410.615C477.224 410.242 485.536 402.681 485.536 393.724V315.099C485.536 306.143 477.224 299.007 466.934 299.161Z" fill="url(#paint31_linear_118_307)"/>
<path d="M474.184 284.448C469.846 284.506 466.324 281.486 466.324 277.703V259.898C466.324 242.035 449.569 227.546 428.829 227.601L382.163 227.722C360.888 227.777 343.455 242.694 343.455 260.974V279.195C343.455 283.067 339.761 286.255 335.198 286.316C330.626 286.378 326.915 283.279 326.915 279.396V261.119C326.915 235.029 351.84 213.802 382.163 213.802H428.829C458.292 213.802 482.022 234.419 482.022 259.76V277.512C482.022 281.284 478.516 284.389 474.184 284.448Z" fill="url(#paint32_linear_118_307)"/>
<path d="M418.487 344.248C418.487 335.207 409.735 328.109 399.096 328.761C389.687 329.337 381.907 336.132 381.399 344.245C381.005 350.54 384.841 355.982 390.673 358.734C393.153 359.905 394.386 362.372 393.903 364.813L389.813 385.511C389.292 388.147 391.642 390.463 394.733 390.363L405.244 390.023C408.319 389.924 410.652 387.466 410.136 384.873L406.048 364.367C405.561 361.921 406.971 359.491 409.458 358.15C414.867 355.234 418.487 350.062 418.487 344.248Z" fill="url(#paint33_linear_118_307)"/>
<path d="M130.788 553.643C130.791 553.465 130.778 553.286 130.727 553.105C127.757 542.485 113.014 535.87 113.014 535.87L107.171 536.283C103.812 545.644 104.244 551.384 104.784 553.942C104.798 554.013 104.823 554.082 104.844 554.151C109.663 554.539 119.582 554.793 130.788 553.643Z" fill="url(#paint34_linear_118_307)"/>
<path d="M104.844 554.151C105.104 555.005 105.803 555.67 106.698 555.839C113.553 557.139 124.449 556.093 129.024 555.554C130.033 555.435 130.771 554.593 130.788 553.643C119.582 554.793 109.663 554.539 104.844 554.151Z" fill="#91B3FA"/>
<path d="M104.822 528.436L107.297 539.178C107.478 539.965 108.149 540.554 108.961 540.623C109.955 540.707 111.371 540.756 112.794 540.568C114.071 540.399 114.96 539.229 114.734 537.974L113.014 528.436H104.822Z" fill="url(#paint35_linear_118_307)"/>
<path d="M156.089 554.015C149.637 553.852 146.3 553.167 144.575 552.531C144.571 553.109 144.574 553.698 144.595 554.308C144.617 554.96 145.152 555.48 145.811 555.476L181.238 555.27C182.368 555.263 183.029 554.081 182.539 553.146C177.894 553.492 166.063 554.266 156.089 554.015Z" fill="#91B3FA"/>
<path d="M182.539 553.146C182.496 553.065 182.46 552.982 182.399 552.905C179.27 548.963 171.301 541.112 155.555 537.707L148.002 537.492C148.002 537.492 144.638 542.764 144.574 552.531C146.3 553.167 149.637 553.852 156.089 554.015C166.063 554.266 177.894 553.492 182.539 553.146Z" fill="url(#paint36_linear_118_307)"/>
<path d="M146.265 527.485C146.384 527.987 147.955 535.631 148.564 538.594C148.709 539.298 149.318 539.815 150.041 539.852C151.335 539.917 153.421 539.925 155.215 539.486C156.183 539.248 156.833 538.359 156.764 537.371L155.919 525.281L146.265 527.485Z" fill="url(#paint37_linear_118_307)"/>
<path d="M140.54 386.357C140.54 386.357 150.932 450.749 158.431 527.375C158.57 528.802 157.309 530.044 155.755 530.339C153.464 530.774 150.096 531.291 147.309 531.22C145.821 531.183 144.577 530.188 144.326 528.864C141.772 515.354 123.543 442.845 118.758 426.887C118.758 426.887 113.263 494.674 115.02 529.843C115.063 530.717 114.353 531.476 113.389 531.576C111.926 531.729 109.587 531.845 106.609 531.559C105.478 531.451 104.566 530.681 104.405 529.666C102.585 518.232 92.1114 450.171 92.5568 401.143C92.582 398.378 96.1539 375.661 96.1539 375.661L140.54 386.357Z" fill="url(#paint38_linear_118_307)"/>
<path d="M144.567 278.07L145.958 311.766C149.91 312.992 153.672 313.946 157.254 314.658C159.495 308.152 164.429 300.167 168.469 294.23C153.625 289.498 144.567 278.07 144.567 278.07Z" fill="url(#paint39_linear_118_307)"/>
<path d="M94.5922 390.068C93.5237 389.726 92.779 388.852 92.6627 387.835C91.2809 375.745 84.5904 300.783 126.829 269.947C126.829 269.947 129.252 264.231 149.162 278.281C169.073 292.33 158.413 307.056 153.646 327.367C147.878 351.946 137.757 372.036 142.235 387.161C142.544 388.205 141.935 389.301 140.811 389.675C125.345 394.816 109.938 394.986 94.5922 390.068Z" fill="url(#paint40_linear_118_307)"/>
<path d="M143.306 247.487C143.293 248.553 126.426 270.158 126.426 270.158C126.426 270.158 129.453 275.535 143.906 279.901L156.382 256.768L143.306 247.487Z" fill="url(#paint41_linear_118_307)"/>
<path d="M134.95 321.413C134.845 321.413 134.738 321.386 134.644 321.328C121.17 313.119 114.832 299.867 114.769 299.734C114.652 299.482 114.781 299.193 115.06 299.087C115.339 298.98 115.659 299.096 115.778 299.348C115.839 299.479 122.06 312.468 135.257 320.51C135.508 320.662 135.574 320.969 135.404 321.196C135.299 321.337 135.126 321.413 134.95 321.413Z" fill="url(#paint42_linear_118_307)"/>
<path d="M155.02 303.046C154.841 303.046 154.664 302.966 154.559 302.82C154.519 302.763 150.402 296.984 142.562 284.324C140.151 280.431 136.983 277.966 133.145 276.997C126.789 275.395 120.663 278.468 120.602 278.499C120.339 278.63 120.005 278.551 119.856 278.314C119.706 278.077 119.798 277.776 120.061 277.641C120.325 277.506 126.626 274.326 133.429 276.044C137.564 277.084 140.958 279.707 143.518 283.841C151.339 296.47 155.44 302.228 155.48 302.285C155.644 302.514 155.571 302.82 155.317 302.968C155.224 303.021 155.122 303.046 155.02 303.046Z" fill="url(#paint43_linear_118_307)"/>
<path d="M156.585 235.107C156.585 235.107 162.587 247.54 162.99 254.065C163.393 260.591 164.952 264.825 156.585 266.139C148.219 267.453 141.17 263.694 137.352 257.194C137.352 257.194 131.369 247.178 132.711 243.076C134.053 238.974 156.585 235.107 156.585 235.107Z" fill="url(#paint44_linear_118_307)"/>
<path d="M140.211 252.521L140.687 252.331C141.294 252.09 141.553 251.439 141.249 250.909C140.069 248.853 137.769 244.142 140.74 243.043C144.569 241.627 159.737 238.837 163.01 233.983C166.155 229.319 163.369 223.297 159.18 221.585C158.9 221.47 158.57 221.561 158.426 221.806L158.077 222.402C157.838 222.81 157.17 222.748 157.028 222.305C156.891 221.88 156.264 221.797 156.004 222.173C154.998 223.625 152.282 225.979 145.02 227.188C134.698 228.906 127.874 232.673 127.704 239.105C127.693 239.513 127.211 239.741 126.824 239.528C126.062 239.109 124.842 238.912 123.212 240.148C120.378 242.298 121.538 247.874 127.752 252.461C128.047 252.679 128.045 253.094 127.725 253.282C126.598 253.943 124.919 255.517 129.27 257.614C133.771 259.784 137.132 259.606 138.427 259.414C138.749 259.366 138.956 259.085 138.886 258.797L137.505 253.144C137.426 252.824 137.697 252.521 138.06 252.521H140.211V252.521Z" fill="url(#paint45_linear_118_307)"/>
<path d="M140.471 253.713C140.471 253.713 138.181 245.771 134.233 247.998C130.285 250.225 136.282 256.897 139.456 257.194L140.471 253.713Z" fill="url(#paint46_linear_118_307)"/>
<path d="M218.183 275.536C218.183 275.536 215.175 270.726 215.366 268.389C215.557 266.053 213.943 262.621 215.661 262.875C217.379 263.129 217.734 262.922 218.2 265.726C218.666 268.53 224.089 280.777 218.183 275.536Z" fill="url(#paint47_linear_118_307)"/>
<path d="M218.748 267.889L218.679 277.497C198.316 297.324 181.835 298.491 168.469 294.23C164.429 300.167 159.495 308.152 157.254 314.658C211.632 325.47 224.438 280.387 224.438 280.387C231.803 277.636 233.288 276.026 232.971 274.223L218.748 267.889Z" fill="url(#paint48_linear_118_307)"/>
<path d="M234.408 258.357C232.67 257.72 229.269 251.873 228.618 253.797C227.967 255.72 228.893 258.357 228.618 259.174C228.343 259.993 224.103 269.403 224.95 271.494C225.561 273.003 228.927 272.78 229.441 275.248C229.611 276.067 230.337 276.654 231.18 276.655C232.021 276.655 232.748 276.068 232.92 275.249C232.988 274.921 236.146 258.993 234.408 258.357Z" fill="url(#paint49_linear_118_307)"/>
<path d="M178.905 238.345C165.174 262.837 176.058 292.729 203.216 305.112C225.29 315.177 251.32 310.576 267.666 295.35L362.025 338.374C363.592 339.088 365.456 339.03 366.965 338.22L376.193 333.262C376.352 333.177 376.502 333.083 376.647 332.985C376.688 332.957 376.727 332.927 376.766 332.899C376.874 332.821 376.977 332.741 377.076 332.657C377.11 332.629 377.144 332.6 377.176 332.571C377.299 332.462 377.416 332.348 377.524 332.229C377.526 332.227 377.528 332.226 377.529 332.224C378.688 330.952 379.042 329.177 378.333 327.573L370.833 310.621C370.37 309.573 369.499 308.715 368.383 308.206L358.932 303.897L356.431 308.358L348.312 304.656L350.813 300.195L343.217 296.731L340.916 300.835L331.048 296.336L333.349 292.232L329.673 290.555L328.488 292.668L320.216 288.896L321.4 286.784L314.967 283.85L312.466 288.311L307.87 286.216L310.371 281.755L306.388 279.939L303.887 284.4L295.921 280.768L298.422 276.306L287.225 271.201L282.43 269.015C286.337 248.117 275.015 226.485 252.941 216.42C225.783 204.038 192.636 213.853 178.905 238.345ZM211.054 241.728C216.553 244.236 218.757 250.289 215.977 255.248C213.196 260.208 206.484 262.195 200.985 259.688C195.486 257.181 193.281 251.127 196.062 246.168C198.842 241.209 205.555 239.221 211.054 241.728Z" fill="url(#paint50_linear_118_307)"/>
<path d="M255.389 253.354L300.12 273.749L297.619 278.21L305.585 281.842L308.086 277.381L312.069 279.197L309.568 283.658L314.164 285.754L316.665 281.293L323.099 284.227L321.914 286.339L330.187 290.111L331.371 287.998L335.047 289.675L332.747 293.778L342.614 298.278L344.915 294.174L352.511 297.637L350.01 302.098L358.129 305.8L360.63 301.339L370.081 305.649C371.197 306.157 372.068 307.016 372.532 308.063L380.031 325.016C380.965 327.128 380.058 329.541 377.891 330.705L368.663 335.662C367.154 336.473 365.29 336.531 363.723 335.816L249.816 283.879L255.389 253.354Z" fill="url(#paint51_linear_118_307)"/>
<path d="M204.915 302.555C232.073 314.938 265.22 305.122 278.951 280.63C292.682 256.139 281.798 226.246 254.64 213.863C227.481 201.48 194.334 211.296 180.603 235.788C166.872 260.279 177.757 290.172 204.915 302.555ZM202.684 257.13C197.185 254.623 194.98 248.57 197.761 243.61C200.541 238.651 207.253 236.663 212.752 239.171C218.251 241.678 220.456 247.731 217.676 252.691C214.895 257.65 208.183 259.638 202.684 257.13Z" fill="url(#paint52_linear_118_307)"/>
<path d="M269.365 292.792L363.723 335.816C365.291 336.531 367.155 336.473 368.663 335.662L377.892 330.705C379.283 329.957 380.146 328.694 380.345 327.327C371.745 318.923 289.997 286.731 286.939 280.106C285.852 277.749 285.665 274.18 288.924 268.644L284.129 266.458C288.036 245.56 276.714 223.928 254.64 213.863C227.482 201.48 194.335 211.296 180.604 235.788C166.873 260.279 177.757 290.172 204.915 302.555C226.989 312.619 253.019 308.018 269.365 292.792ZM212.752 239.171C218.251 241.678 220.456 247.732 217.676 252.691C214.895 257.65 208.183 259.638 202.684 257.13C197.185 254.623 194.98 248.57 197.761 243.61C200.541 238.651 207.253 236.664 212.752 239.171Z" fill="url(#paint53_linear_118_307)"/>
<path d="M209.794 293.851C231.623 303.804 258.264 295.915 269.3 276.23C280.336 256.545 271.588 232.519 249.76 222.567C227.932 212.614 201.29 220.503 190.254 240.188C179.218 259.873 187.966 283.898 209.794 293.851ZM202.684 257.13C197.185 254.623 194.98 248.57 197.761 243.61C200.541 238.651 207.253 236.663 212.752 239.171C218.251 241.678 220.456 247.731 217.676 252.691C214.895 257.65 208.183 259.638 202.684 257.13Z" fill="url(#paint54_linear_118_307)"/>
<path d="M134.95 321.413C134.95 321.413 186.84 337.078 215.865 317.15C217.665 315.913 219.937 315.375 222.17 315.702L233.258 317.332C237.912 318.015 242.346 315.295 243.349 311.14C243.922 308.77 244.197 306.178 243.614 303.951L222.681 302.812L223.28 300.363C223.28 300.363 214.028 302.404 213.842 308.932C213.842 308.932 192.139 321.752 152.555 301.853C152.555 301.853 137.141 312.732 134.95 321.413Z" fill="url(#paint55_linear_118_307)"/>
<g opacity="0.3">
<path d="M535.741 86.8028C534.532 86.7583 533.593 85.8384 533.643 84.7491C533.739 82.6322 533.735 80.4804 533.63 78.3527C533.577 77.2762 534.49 76.3629 535.678 76.2949C535.692 76.2941 535.706 76.2933 535.72 76.2925C536.928 76.2442 537.951 77.0883 538.004 78.178C538.114 80.4174 538.119 82.6831 538.017 84.9113C537.971 85.9302 537.076 86.7372 535.971 86.8004C535.895 86.8046 535.818 86.806 535.741 86.8028ZM532.333 68.0281C531.908 65.9341 531.379 63.837 530.761 61.7928C530.444 60.7415 531.131 59.6556 532.298 59.3686C533.47 59.0845 534.668 59.7027 534.986 60.755C535.636 62.9055 536.192 65.1133 536.64 67.3162C536.858 68.3887 536.07 69.4177 534.88 69.614C534.794 69.6282 534.707 69.6376 534.622 69.6427C533.53 69.7052 532.534 69.0228 532.333 68.0281ZM526.967 51.9876C526.039 50.037 525.005 48.0991 523.893 46.2269C523.322 45.2657 523.724 44.0689 524.79 43.5543C525.855 43.0412 527.182 43.4019 527.753 44.3631C528.924 46.3346 530.013 48.3759 530.991 50.4296C531.468 51.4315 530.953 52.5924 529.843 53.0232C529.606 53.1148 529.361 53.166 529.118 53.1798C528.22 53.2311 527.343 52.7759 526.967 51.9876ZM517.759 37.4321C516.368 35.7157 514.879 34.0343 513.333 32.4334C512.539 31.611 512.634 30.3637 513.545 29.6477C514.458 28.9324 515.84 29.0187 516.634 29.8395C518.262 31.5252 519.83 33.2958 521.294 35.1014C522.007 35.9818 521.794 37.2173 520.818 37.8604C520.469 38.0906 520.069 38.214 519.667 38.237C518.946 38.2783 518.217 37.997 517.759 37.4321ZM505.184 25.0893C503.41 23.6978 501.545 22.3547 499.64 21.0992C498.664 20.455 498.451 19.2197 499.165 18.3398C499.879 17.459 501.249 17.2677 502.224 17.912C504.228 19.2332 506.191 20.6463 508.058 22.1105C508.97 22.8256 509.066 24.073 508.273 24.8958C507.873 25.3105 507.323 25.5383 506.76 25.5706C506.205 25.6021 505.637 25.4444 505.184 25.0893ZM489.894 15.5635C487.82 14.5586 485.672 13.6221 483.51 12.779C482.4 12.3464 481.889 11.1839 482.369 10.1836C482.849 9.18253 484.137 8.7215 485.247 9.15406C487.523 10.0408 489.784 11.0273 491.967 12.0847C493.032 12.6011 493.431 13.7977 492.859 14.7585C492.488 15.3826 491.797 15.7528 491.067 15.7947C490.673 15.8174 490.268 15.7448 489.894 15.5635ZM408.6 14.6444C408.031 13.6824 408.435 12.4862 409.502 11.973C411.688 10.9222 413.954 9.94298 416.238 9.06341C417.35 8.63506 418.636 9.10071 419.111 10.1038C419.586 11.1059 419.069 12.2662 417.958 12.6946C415.789 13.5296 413.637 14.4597 411.562 15.4578C411.277 15.5948 410.975 15.6692 410.672 15.6864C409.842 15.7339 409.017 15.3499 408.6 14.6444ZM472.654 9.33494C470.385 8.77163 468.062 8.29014 465.747 7.9049C464.558 7.70637 463.772 6.6764 463.992 5.60431C464.212 4.53143 465.353 3.82854 466.543 4.02166C468.98 4.42775 471.427 4.93451 473.816 5.52811C474.982 5.81769 475.667 6.90441 475.346 7.95604C475.091 8.78988 474.28 9.35099 473.374 9.40273C473.138 9.41616 472.895 9.3945 472.654 9.33494ZM426.155 7.90069C425.84 6.84846 426.53 5.76415 427.698 5.47938C430.089 4.89661 432.539 4.39927 434.981 4C436.17 3.80046 437.309 4.5182 437.525 5.59068C437.741 6.66336 436.951 7.69072 435.761 7.88565C433.441 8.26507 431.112 8.73754 428.84 9.29183C428.695 9.32712 428.55 9.34778 428.405 9.3562C427.388 9.41436 426.431 8.82237 426.155 7.90069ZM454.306 6.73756C451.956 6.64631 449.571 6.64531 447.216 6.73536C446.007 6.78208 444.987 5.93641 444.935 4.84648C444.885 3.77139 445.798 2.86054 446.983 2.79256C446.999 2.79175 447.014 2.79075 447.03 2.79075C449.509 2.69529 452.02 2.69589 454.494 2.79155C455.702 2.83908 456.639 3.75995 456.587 4.84948C456.539 5.86682 455.644 6.67158 454.541 6.73475C454.464 6.73936 454.385 6.73997 454.306 6.73756Z" fill="#91B3FA"/>
<path d="M397.817 23.2901C398.247 23.2654 398.674 23.1267 399.037 22.8664C399.921 22.2331 400.835 21.6066 401.752 21.0023C402.729 20.3598 402.943 19.1243 402.23 18.2439C401.518 17.3628 400.147 17.1684 399.171 17.8132C398.206 18.4481 397.245 19.1072 396.315 19.7734C395.368 20.4513 395.21 21.6938 395.961 22.5471C396.425 23.0739 397.125 23.3298 397.817 23.2901Z" fill="#91B3FA"/>
</g>
<g opacity="0.3">
<path d="M365.899 76.1569C366.954 76.0966 367.833 75.3538 367.938 74.3749C368.045 73.3618 368.178 72.3334 368.333 71.3191C368.497 70.2386 367.66 69.2425 366.462 69.0939C365.259 68.9449 364.16 69.701 363.995 70.7809C363.832 71.8487 363.692 72.9319 363.578 73.9985C363.463 75.084 364.346 76.048 365.549 76.1523C365.667 76.1623 365.784 76.1635 365.899 76.1569Z" fill="#91B3FA"/>
<path d="M451.782 160.446C450.573 160.461 449.579 159.59 449.561 158.499C449.544 157.409 450.509 156.515 451.719 156.497C454.021 156.467 456.357 156.348 458.689 156.144C459.886 156.035 460.963 156.833 461.08 157.918C461.198 159.003 460.317 159.969 459.113 160.075C458.103 160.163 457.095 160.236 456.089 160.294C454.655 160.376 453.206 160.428 451.782 160.446ZM468.248 156.842C467.969 155.782 468.697 154.718 469.873 154.467C472.132 153.983 474.392 153.41 476.592 152.76C477.738 152.417 478.978 152.985 479.354 154.021C479.73 155.057 479.104 156.172 477.955 156.512C475.64 157.196 473.26 157.801 470.883 158.308C470.76 158.335 470.636 158.351 470.515 158.358C469.469 158.418 468.498 157.793 468.248 156.842ZM439.869 159.863C437.452 159.594 435.014 159.229 432.623 158.775C431.44 158.551 430.682 157.504 430.931 156.436C431.18 155.369 432.341 154.688 433.524 154.91C435.795 155.342 438.109 155.689 440.405 155.944C441.605 156.078 442.458 157.063 442.31 158.146C442.179 159.103 441.309 159.815 440.278 159.874C440.144 159.882 440.007 159.879 439.869 159.863ZM486.087 151.559C485.557 150.579 486.008 149.396 487.094 148.918C489.177 148.001 491.241 146.993 493.23 145.922C494.268 145.362 495.611 145.667 496.232 146.604C496.852 147.54 496.514 148.752 495.476 149.311C493.382 150.439 491.208 151.501 489.015 152.467C488.75 152.583 488.472 152.648 488.194 152.664C487.335 152.713 486.488 152.299 486.087 151.559ZM421.153 155.844C418.862 155.103 416.574 154.262 414.352 153.346C413.252 152.893 412.768 151.722 413.271 150.731C413.773 149.738 415.073 149.302 416.172 149.755C418.283 150.625 420.456 151.424 422.632 152.127C423.771 152.496 424.362 153.627 423.954 154.653C423.649 155.418 422.876 155.908 422.031 155.957C421.741 155.974 421.443 155.938 421.153 155.844ZM403.868 148.221C401.807 147.043 399.777 145.773 397.834 144.446C396.87 143.787 396.681 142.549 397.411 141.679C398.142 140.809 399.515 140.639 400.478 141.298C402.324 142.559 404.253 143.766 406.212 144.886C407.233 145.47 407.536 146.689 406.889 147.611C406.498 148.165 405.852 148.485 405.177 148.524C404.731 148.549 404.273 148.453 403.868 148.221ZM388.835 137.381C387.106 135.826 385.431 134.187 383.857 132.511C383.075 131.679 383.189 130.433 384.111 129.728C385.035 129.022 386.416 129.127 387.197 129.958C388.693 131.551 390.285 133.107 391.928 134.586C392.784 135.356 392.785 136.606 391.931 137.378C391.539 137.733 391.035 137.925 390.521 137.954C389.916 137.989 389.298 137.798 388.835 137.381ZM376.782 123.843C375.473 121.984 374.236 120.053 373.107 118.104C372.547 117.138 372.962 115.945 374.034 115.44C375.104 114.936 376.428 115.31 376.988 116.276C378.06 118.127 379.234 119.96 380.478 121.725C381.127 122.646 380.825 123.866 379.804 124.45C379.482 124.635 379.127 124.734 378.771 124.754C378 124.798 377.226 124.473 376.782 123.843ZM368.319 108.238C367.497 106.17 366.764 104.043 366.137 101.915C365.827 100.861 366.523 99.7794 367.692 99.5C368.857 99.2215 370.059 99.8476 370.369 100.902C370.964 102.923 371.661 104.943 372.441 106.908C372.848 107.934 372.256 109.065 371.118 109.432C370.92 109.496 370.718 109.533 370.518 109.545C369.569 109.599 368.655 109.086 368.319 108.238ZM363.866 91.3565C363.643 89.7502 363.472 88.1178 363.359 86.5053C363.318 85.9211 363.284 85.339 363.257 84.7568C363.207 83.6679 364.129 82.7269 365.353 82.7025C366.561 82.6565 367.582 83.503 367.632 84.5929C367.658 85.1456 367.69 85.7001 367.729 86.255C367.837 87.7883 367.999 89.3393 368.21 90.8666C368.36 91.9483 367.509 92.9352 366.31 93.0703C366.264 93.0752 366.219 93.0794 366.175 93.082C365.029 93.1477 364.01 92.3977 363.866 91.3565Z" fill="#91B3FA"/>
<path d="M504.09 143.568C504.524 143.543 504.954 143.402 505.319 143.138C506.244 142.469 507.17 141.77 508.073 141.06C508.984 140.343 509.078 139.096 508.284 138.274C507.488 137.453 506.107 137.366 505.195 138.084C504.337 138.758 503.457 139.422 502.58 140.057C501.637 140.739 501.485 141.982 502.241 142.832C502.705 143.354 503.403 143.607 504.09 143.568Z" fill="#91B3FA"/>
</g>
<path d="M508.226 109.926C508.48 109.605 508.48 109.175 508.228 108.854L501.015 99.6981C503.232 94.8488 504.606 89.646 505 84.2599L515.944 78.9144C516.327 78.7269 516.537 78.3402 516.465 77.952L514.022 64.6619C513.95 64.2734 513.613 63.9686 513.183 63.903L500.911 62.0294C498.611 57.0462 495.448 52.5218 491.614 48.5776L495.163 37.8123C495.288 37.4349 495.133 37.028 494.778 36.799L482.629 28.9597C482.274 28.7307 481.797 28.7299 481.441 28.9579L471.288 35.4624C465.911 33.4634 460.142 32.2233 454.169 31.8687L448.242 21.9994C448.034 21.6531 447.605 21.464 447.175 21.5285L432.437 23.7324C432.007 23.797 431.669 24.1006 431.596 24.4887L429.518 35.5554C423.992 37.6296 418.976 40.4827 414.602 43.94L402.664 40.739C402.246 40.6269 401.795 40.7662 401.541 41.0865L392.848 52.0425C392.594 52.3626 392.593 52.793 392.846 53.1138L400.059 62.27C397.842 67.1191 396.467 72.3219 396.074 77.7081L385.13 83.0537C384.746 83.241 384.536 83.6277 384.608 84.0159L387.052 97.3064C387.123 97.6949 387.46 97.9995 387.89 98.0653L400.162 99.9391C402.462 104.922 405.626 109.446 409.459 113.391L405.91 124.156C405.786 124.533 405.94 124.941 406.295 125.17L418.444 133.009C418.799 133.238 419.276 133.239 419.632 133.011L429.785 126.506C435.162 128.505 440.931 129.745 446.904 130.1L452.831 139.969C453.039 140.315 453.468 140.504 453.899 140.44L468.636 138.236C469.066 138.171 469.405 137.868 469.477 137.48L471.555 126.413C477.081 124.339 482.097 121.486 486.471 118.029L498.409 121.229C498.827 121.342 499.279 121.202 499.532 120.882L508.226 109.926Z" fill="#91B3FA"/>
<path d="M449.293 94.479C441.042 93.8602 434.887 87.3037 435.573 79.8619C435.904 76.2572 437.774 72.9848 440.835 70.6482C443.896 68.3115 447.783 67.1887 451.781 67.4893C460.032 68.1081 466.187 74.6646 465.501 82.1064C464.877 88.8762 458.803 94.081 451.498 94.4991C450.774 94.5404 450.037 94.5346 449.293 94.479ZM443.098 73.0594C440.751 74.8515 439.318 77.36 439.063 80.1242C438.538 85.829 443.257 90.8571 449.583 91.3312C455.911 91.8074 461.484 87.5494 462.01 81.8441C462.536 76.1393 457.817 71.1112 451.491 70.6371C450.917 70.5942 450.347 70.5898 449.783 70.6221C447.333 70.7621 445.006 71.6033 443.098 73.0594Z" fill="#BDD0FB"/>
<path d="M452.565 114.036C453.82 113.964 455.078 113.835 456.335 113.647C456.731 113.588 457.125 113.523 457.519 113.452C459.459 113.104 461.365 112.617 463.208 111.999C463.233 111.991 463.258 111.982 463.284 111.974C463.355 111.95 463.426 111.926 463.497 111.901C463.635 111.854 463.773 111.805 463.911 111.756C464.273 111.627 464.486 111.305 464.463 110.973C464.457 110.892 464.438 110.81 464.403 110.731C464.225 110.325 463.716 110.128 463.267 110.288C460.953 111.113 458.524 111.719 456.049 112.089C443.754 113.929 431.868 109.75 424.1 101.951C419.778 97.6132 416.732 92.1548 415.598 85.988C415.399 84.9067 415.262 83.8242 415.186 82.7449C414.676 75.4821 416.932 68.3413 421.692 62.3434C427.158 55.4533 435.273 50.8952 444.54 49.5093C463.68 46.6486 481.818 58.3575 484.991 75.6101C485.186 76.6739 485.322 77.7426 485.396 78.8117C485.722 83.4445 484.919 88.0902 483.028 92.4124C482.98 92.5241 482.961 92.6397 482.969 92.752C482.99 93.0476 483.195 93.3209 483.521 93.4366C483.972 93.5954 484.48 93.3987 484.658 92.9914C486.642 88.4536 487.485 83.5761 487.144 78.7124C487.066 77.5902 486.924 76.4686 486.719 75.352C483.388 57.2383 464.332 44.9481 444.254 47.9505C434.524 49.4054 426.006 54.1905 420.267 61.4239C415.271 67.7207 412.902 75.2172 413.438 82.8417C413.517 83.9748 413.661 85.111 413.869 86.2459C415.483 95.0205 420.789 102.703 428.809 107.878C435.794 112.385 444.109 114.52 452.565 114.036Z" fill="#BDD0FB"/>
<g opacity="0.3">
<path d="M614.188 134.459C614.772 134.425 615.286 134.051 615.421 133.51C615.674 132.5 615.896 131.47 616.082 130.447C616.202 129.783 615.703 129.156 614.966 129.047C614.228 128.935 613.534 129.389 613.413 130.053C613.236 131.028 613.024 132.01 612.783 132.973C612.618 133.63 613.076 134.282 613.804 134.432C613.933 134.458 614.062 134.466 614.188 134.459Z" fill="#91B3FA"/>
<path d="M615.4 125.16C614.654 125.133 614.072 124.567 614.101 123.894C614.172 122.195 614.148 120.474 614.029 118.778C614.004 118.42 613.974 118.061 613.94 117.701C613.878 117.031 614.43 116.441 615.174 116.384C615.88 116.355 616.572 116.826 616.635 117.497C616.67 117.873 616.702 118.249 616.728 118.623C616.853 120.401 616.878 122.206 616.802 123.987C616.776 124.618 616.223 125.118 615.539 125.158C615.493 125.16 615.447 125.16 615.4 125.16ZM612.946 111.574C612.478 109.557 611.867 107.547 611.13 105.603C610.889 104.965 611.265 104.273 611.973 104.055C612.676 103.839 613.448 104.177 613.689 104.814C614.462 106.852 615.102 108.959 615.593 111.074C615.746 111.733 615.277 112.379 614.546 112.518C614.482 112.53 614.417 112.537 614.353 112.541C613.693 112.579 613.085 112.174 612.946 111.574ZM608.508 99.8783C607.508 98.0288 606.368 96.2169 605.12 94.4913C604.713 93.9276 604.889 93.1717 605.514 92.8041C606.142 92.4353 606.978 92.594 607.386 93.1589C608.695 94.9679 609.89 96.8697 610.939 98.8085C611.267 99.4137 610.988 100.144 610.317 100.439C610.153 100.511 609.981 100.551 609.81 100.56C609.28 100.591 608.756 100.336 608.508 99.8783ZM601.02 89.5235C599.545 87.9493 597.948 86.443 596.274 85.0495C595.726 84.5917 595.692 83.8204 596.199 83.3261C596.705 82.8329 597.56 82.8006 598.109 83.2573C599.865 84.72 601.539 86.2982 603.086 87.9495C603.568 88.4637 603.496 89.2337 602.926 89.6687C602.695 89.843 602.419 89.9374 602.14 89.9535C601.727 89.9769 601.308 89.8303 601.02 89.5235ZM590.955 81.131C589.101 79.9281 587.147 78.8179 585.147 77.8299C584.493 77.507 584.253 76.7654 584.611 76.1746C584.97 75.5836 585.792 75.3661 586.447 75.6913C588.543 76.7263 590.591 77.8906 592.535 79.1506C593.141 79.5443 593.279 80.3061 592.843 80.8524C592.597 81.1612 592.22 81.3355 591.83 81.358C591.529 81.375 591.22 81.302 590.955 81.131ZM578.937 75.1962C576.816 74.437 574.623 73.7904 572.417 73.2748C571.695 73.1062 571.26 72.4402 571.448 71.7886C571.636 71.1371 572.371 70.7466 573.097 70.9139C575.409 71.4545 577.71 72.1332 579.935 72.9293C580.629 73.1784 580.968 73.8869 580.693 74.5124C580.493 74.9652 580.026 75.2509 579.521 75.28C579.328 75.2909 579.129 75.2652 578.937 75.1962ZM565.679 72.0937C563.424 71.8279 561.119 71.6864 558.83 71.6743C558.083 71.6693 557.482 71.1202 557.487 70.447C557.491 69.7738 558.099 69.2414 558.848 69.2344C561.247 69.2486 563.663 69.3966 566.029 69.6754C566.769 69.763 567.292 70.375 567.195 71.0428C567.11 71.63 566.574 72.0652 565.941 72.1015C565.855 72.1063 565.768 72.1043 565.679 72.0937ZM543.58 72.218C543.403 71.5636 543.848 70.9045 544.573 70.7446C546.582 70.3026 548.652 69.9527 550.72 69.7042C551.034 69.6649 551.347 69.6302 551.661 69.5968C552.396 69.4997 553.074 69.9978 553.159 70.6684C553.245 71.3376 552.714 71.942 551.972 72.0203C551.677 72.0503 551.383 72.0838 551.083 72.1213C549.104 72.3586 547.129 72.6925 545.214 73.1136C545.135 73.1312 545.056 73.1417 544.978 73.1461C544.335 73.183 543.738 72.8008 543.58 72.218Z" fill="#91B3FA"/>
</g>
<g opacity="0.3">
<path d="M561.325 174.515C558.972 174.623 556.59 174.6 554.247 174.452C553.503 174.403 552.941 173.821 552.994 173.149C553.046 172.476 553.698 171.977 554.439 172.018C556.673 172.161 558.944 172.181 561.19 172.079C561.936 172.045 562.571 172.563 562.608 173.236C562.645 173.903 562.081 174.472 561.344 174.514C561.338 174.515 561.331 174.515 561.325 174.515ZM566.803 172.815C566.677 172.152 567.171 171.521 567.907 171.407C570.12 171.063 572.333 170.595 574.484 170.015C575.196 169.825 575.953 170.189 576.167 170.835C576.381 171.481 575.974 172.159 575.259 172.353C573.005 172.96 570.685 173.451 568.365 173.81C568.316 173.818 568.268 173.823 568.219 173.826C567.539 173.865 566.922 173.436 566.803 172.815ZM547.225 173.611C544.911 173.202 542.605 172.662 540.371 172.006C539.661 171.797 539.273 171.108 539.504 170.469C539.735 169.828 540.496 169.48 541.208 169.686C543.339 170.312 545.538 170.827 547.746 171.219C548.479 171.349 548.956 171.99 548.812 172.649C548.691 173.205 548.17 173.598 547.571 173.632C547.458 173.639 547.342 173.632 547.225 173.611ZM580.129 169.523C579.829 168.906 580.141 168.187 580.824 167.916C582.881 167.103 584.903 166.167 586.833 165.134C587.476 164.792 588.305 164.983 588.686 165.56C589.067 166.14 588.855 166.888 588.213 167.232C586.189 168.315 584.068 169.297 581.91 170.15C581.761 170.208 581.606 170.241 581.453 170.25C580.902 170.281 580.363 170.004 580.129 169.523ZM533.789 169.662C531.657 168.765 529.564 167.741 527.566 166.618C526.932 166.261 526.739 165.509 527.134 164.937C527.53 164.366 528.363 164.19 528.998 164.548C530.903 165.62 532.899 166.596 534.933 167.451C535.609 167.736 535.903 168.461 535.586 169.072C535.37 169.49 534.923 169.746 534.446 169.774C534.227 169.786 534.002 169.752 533.789 169.662ZM521.794 162.921C519.959 161.587 518.197 160.14 516.558 158.622C516.037 158.14 516.048 157.368 516.584 156.898C517.118 156.429 517.974 156.438 518.496 156.921C520.059 158.369 521.74 159.748 523.492 161.022C524.073 161.444 524.165 162.212 523.696 162.737C523.448 163.013 523.094 163.167 522.728 163.188C522.403 163.207 522.068 163.12 521.794 162.921ZM511.934 153.783C510.505 152.09 509.179 150.303 507.993 148.474C507.616 147.892 507.833 147.145 508.478 146.805C509.122 146.465 509.951 146.662 510.328 147.242C511.458 148.988 512.723 150.691 514.086 152.304C514.538 152.84 514.424 153.605 513.829 154.013C513.609 154.165 513.354 154.245 513.097 154.26C512.661 154.285 512.219 154.12 511.934 153.783Z" fill="#91B3FA"/>
<path d="M593.386 163.862C593.646 163.847 593.904 163.764 594.126 163.609C595.042 162.971 595.94 162.305 596.798 161.631C597.36 161.188 597.419 160.417 596.928 159.91C596.437 159.405 595.584 159.351 595.02 159.792C594.202 160.436 593.345 161.071 592.471 161.68C591.88 162.093 591.772 162.859 592.229 163.391C592.515 163.723 592.953 163.887 593.386 163.862Z" fill="#91B3FA"/>
</g>
<path d="M596.974 140.873C597.144 140.659 597.144 140.371 596.975 140.156L592.149 134.029C593.632 130.784 594.552 127.303 594.815 123.699L602.138 120.122C602.395 119.996 602.536 119.738 602.488 119.478L600.852 110.585C600.805 110.325 600.579 110.121 600.291 110.077L592.08 108.823C590.541 105.488 588.424 102.461 585.859 99.8216L588.234 92.6179C588.317 92.3654 588.213 92.0931 587.976 91.9396L579.846 86.6939C579.609 86.5407 579.289 86.5401 579.051 86.6927L572.257 91.0452C568.659 89.7076 564.799 88.8778 560.802 88.6406L556.836 82.0364C556.696 81.8048 556.41 81.6783 556.122 81.7214L546.26 83.1961C545.972 83.2392 545.746 83.4426 545.697 83.7023L544.307 91.1076C540.609 92.4955 537.252 94.4047 534.326 96.7183L526.338 94.5763C526.058 94.5013 525.756 94.5946 525.586 94.809L519.769 102.14C519.599 102.355 519.599 102.642 519.768 102.857L524.594 108.984C523.111 112.229 522.191 115.711 521.928 119.315L514.605 122.892C514.348 123.017 514.207 123.275 514.255 123.536L515.891 132.429C515.938 132.689 516.164 132.893 516.452 132.937L524.663 134.19C526.202 137.525 528.32 140.552 530.885 143.192L528.51 150.396C528.427 150.648 528.53 150.92 528.768 151.074L536.897 156.32C537.135 156.473 537.454 156.473 537.692 156.321L544.486 151.968C548.084 153.306 551.945 154.135 555.942 154.373L559.908 160.977C560.047 161.208 560.334 161.335 560.622 161.292L570.484 159.817C570.772 159.774 570.998 159.571 571.047 159.311L572.437 151.906C576.134 150.518 579.491 148.608 582.418 146.295L590.406 148.437C590.686 148.512 590.988 148.418 591.158 148.204L596.974 140.873Z" fill="#91B3FA"/>
<path d="M557.525 130.699C554.801 130.496 552.329 129.347 550.564 127.466C548.799 125.586 547.952 123.198 548.178 120.743C548.645 115.674 553.59 111.901 559.219 112.314C564.84 112.737 569.032 117.203 568.564 122.27C568.338 124.726 567.065 126.955 564.98 128.547C563.285 129.841 561.218 130.588 559.041 130.712C558.541 130.741 558.034 130.737 557.525 130.699ZM550.873 120.944C550.707 122.751 551.33 124.507 552.629 125.891C553.927 127.274 555.745 128.118 557.748 128.269C559.751 128.416 561.698 127.856 563.233 126.685C564.767 125.515 565.703 123.874 565.869 122.069C566.213 118.34 563.129 115.055 558.995 114.744C558.622 114.717 558.253 114.714 557.89 114.735C554.23 114.944 551.186 117.553 550.873 120.944Z" fill="#BDD0FB"/>
<path d="M559.803 144.31C560.657 144.261 561.515 144.173 562.377 144.045C564.088 143.789 565.771 143.377 567.385 142.817C567.458 142.791 567.53 142.765 567.602 142.74C568.161 142.541 568.491 142.043 568.455 141.53C568.446 141.405 568.416 141.279 568.362 141.157C568.088 140.531 567.302 140.227 566.608 140.472C565.107 141.008 563.534 141.4 561.936 141.638H561.935C561.848 141.651 561.759 141.664 561.672 141.676C557.882 142.209 554.088 141.87 550.57 140.735C548.661 140.119 546.832 139.266 545.129 138.189C545.115 138.18 545.101 138.171 545.087 138.162C545.045 138.135 545.003 138.109 544.961 138.081C540.016 134.889 536.743 130.152 535.749 124.741C535.619 124.041 535.531 123.341 535.482 122.642C535.151 117.941 536.613 113.318 539.693 109.434C543.233 104.974 548.486 102.024 554.485 101.127C560.481 100.232 566.512 101.493 571.459 104.684C576.404 107.875 579.677 112.613 580.671 118.023C580.799 118.712 580.886 119.404 580.934 120.095C581.145 123.095 580.625 126.102 579.401 128.9C579.326 129.072 579.297 129.251 579.31 129.424C579.342 129.881 579.659 130.303 580.163 130.482C580.858 130.727 581.643 130.422 581.917 129.794C583.287 126.664 583.868 123.299 583.633 119.944C583.579 119.169 583.482 118.395 583.34 117.625C582.227 111.571 578.566 106.271 573.032 102.701C567.499 99.1308 560.758 97.7124 554.043 98.7209C547.33 99.7244 541.453 103.025 537.494 108.016C534.047 112.36 532.413 117.532 532.782 122.793C532.837 123.573 532.936 124.358 533.08 125.141C535.236 136.86 546.929 145.047 559.803 144.31Z" fill="#BDD0FB"/>
<defs>
<linearGradient id="paint0_linear_118_307" x1="690.662" y1="716.469" x2="213.136" y2="58.8454" gradientUnits="userSpaceOnUse">
<stop stop-color="#DAE3FE"/>
<stop offset="1" stop-color="#E9EFFD"/>
</linearGradient>
<linearGradient id="paint1_linear_118_307" x1="131.39" y1="280.959" x2="178.195" y2="280.959" gradientUnits="userSpaceOnUse">
<stop stop-color="#DAE3FE"/>
<stop offset="1" stop-color="#E9EFFD"/>
</linearGradient>
<linearGradient id="paint2_linear_118_307" x1="79.3413" y1="280.955" x2="126.048" y2="280.955" gradientUnits="userSpaceOnUse">
<stop stop-color="#DAE3FE"/>
<stop offset="1" stop-color="#E9EFFD"/>
</linearGradient>
<linearGradient id="paint3_linear_118_307" x1="27.3445" y1="280.951" x2="73.9543" y2="280.951" gradientUnits="userSpaceOnUse">
<stop stop-color="#DAE3FE"/>
<stop offset="1" stop-color="#E9EFFD"/>
</linearGradient>
<linearGradient id="paint4_linear_118_307" x1="130.81" y1="311.669" x2="177.532" y2="311.669" gradientUnits="userSpaceOnUse">
<stop stop-color="#DAE3FE"/>
<stop offset="1" stop-color="#E9EFFD"/>
</linearGradient>
<linearGradient id="paint5_linear_118_307" x1="78.8517" y1="311.649" x2="125.477" y2="311.649" gradientUnits="userSpaceOnUse">
<stop stop-color="#DAE3FE"/>
<stop offset="1" stop-color="#E9EFFD"/>
</linearGradient>
<linearGradient id="paint6_linear_118_307" x1="26.9454" y1="311.63" x2="73.4735" y2="311.63" gradientUnits="userSpaceOnUse">
<stop stop-color="#DAE3FE"/>
<stop offset="1" stop-color="#E9EFFD"/>
</linearGradient>
<linearGradient id="paint7_linear_118_307" x1="130.232" y1="342.112" x2="176.872" y2="342.112" gradientUnits="userSpaceOnUse">
<stop stop-color="#DAE3FE"/>
<stop offset="1" stop-color="#E9EFFD"/>
</linearGradient>
<linearGradient id="paint8_linear_118_307" x1="78.3638" y1="342.077" x2="124.907" y2="342.077" gradientUnits="userSpaceOnUse">
<stop stop-color="#DAE3FE"/>
<stop offset="1" stop-color="#E9EFFD"/>
</linearGradient>
<linearGradient id="paint9_linear_118_307" x1="26.5477" y1="342.042" x2="72.9944" y2="342.042" gradientUnits="userSpaceOnUse">
<stop stop-color="#DAE3FE"/>
<stop offset="1" stop-color="#E9EFFD"/>
</linearGradient>
<linearGradient id="paint10_linear_118_307" x1="129.656" y1="372.449" x2="176.214" y2="372.449" gradientUnits="userSpaceOnUse">
<stop stop-color="#DAE3FE"/>
<stop offset="1" stop-color="#E9EFFD"/>
</linearGradient>
<linearGradient id="paint11_linear_118_307" x1="77.8774" y1="372.399" x2="124.34" y2="372.399" gradientUnits="userSpaceOnUse">
<stop stop-color="#DAE3FE"/>
<stop offset="1" stop-color="#E9EFFD"/>
</linearGradient>
<linearGradient id="paint12_linear_118_307" x1="26.1512" y1="372.349" x2="72.5171" y2="372.349" gradientUnits="userSpaceOnUse">
<stop stop-color="#DAE3FE"/>
<stop offset="1" stop-color="#E9EFFD"/>
</linearGradient>
<linearGradient id="paint13_linear_118_307" x1="129.081" y1="402.682" x2="175.558" y2="402.682" gradientUnits="userSpaceOnUse">
<stop stop-color="#DAE3FE"/>
<stop offset="1" stop-color="#E9EFFD"/>
</linearGradient>
<linearGradient id="paint14_linear_118_307" x1="77.3929" y1="402.617" x2="123.774" y2="402.617" gradientUnits="userSpaceOnUse">
<stop stop-color="#DAE3FE"/>
<stop offset="1" stop-color="#E9EFFD"/>
</linearGradient>
<linearGradient id="paint15_linear_118_307" x1="25.7561" y1="402.552" x2="72.0413" y2="402.552" gradientUnits="userSpaceOnUse">
<stop stop-color="#DAE3FE"/>
<stop offset="1" stop-color="#E9EFFD"/>
</linearGradient>
<linearGradient id="paint16_linear_118_307" x1="128.509" y1="432.81" x2="174.905" y2="432.81" gradientUnits="userSpaceOnUse">
<stop stop-color="#DAE3FE"/>
<stop offset="1" stop-color="#E9EFFD"/>
</linearGradient>
<linearGradient id="paint17_linear_118_307" x1="76.9099" y1="432.73" x2="123.21" y2="432.73" gradientUnits="userSpaceOnUse">
<stop stop-color="#DAE3FE"/>
<stop offset="1" stop-color="#E9EFFD"/>
</linearGradient>
<linearGradient id="paint18_linear_118_307" x1="25.3624" y1="432.65" x2="71.5672" y2="432.65" gradientUnits="userSpaceOnUse">
<stop stop-color="#DAE3FE"/>
<stop offset="1" stop-color="#E9EFFD"/>
</linearGradient>
<linearGradient id="paint19_linear_118_307" x1="127.939" y1="462.834" x2="174.254" y2="462.834" gradientUnits="userSpaceOnUse">
<stop stop-color="#DAE3FE"/>
<stop offset="1" stop-color="#E9EFFD"/>
</linearGradient>
<linearGradient id="paint20_linear_118_307" x1="76.4288" y1="462.739" x2="122.648" y2="462.739" gradientUnits="userSpaceOnUse">
<stop stop-color="#DAE3FE"/>
<stop offset="1" stop-color="#E9EFFD"/>
</linearGradient>
<linearGradient id="paint21_linear_118_307" x1="24.9701" y1="462.645" x2="71.0948" y2="462.645" gradientUnits="userSpaceOnUse">
<stop stop-color="#DAE3FE"/>
<stop offset="1" stop-color="#E9EFFD"/>
</linearGradient>
<linearGradient id="paint22_linear_118_307" x1="127.37" y1="492.755" x2="173.605" y2="492.755" gradientUnits="userSpaceOnUse">
<stop stop-color="#DAE3FE"/>
<stop offset="1" stop-color="#E9EFFD"/>
</linearGradient>
<linearGradient id="paint23_linear_118_307" x1="75.9492" y1="492.645" x2="122.089" y2="492.645" gradientUnits="userSpaceOnUse">
<stop stop-color="#DAE3FE"/>
<stop offset="1" stop-color="#E9EFFD"/>
</linearGradient>
<linearGradient id="paint24_linear_118_307" x1="24.579" y1="492.536" x2="70.6237" y2="492.536" gradientUnits="userSpaceOnUse">
<stop stop-color="#DAE3FE"/>
<stop offset="1" stop-color="#E9EFFD"/>
</linearGradient>
<linearGradient id="paint25_linear_118_307" x1="126.804" y1="522.573" x2="172.958" y2="522.573" gradientUnits="userSpaceOnUse">
<stop stop-color="#DAE3FE"/>
<stop offset="1" stop-color="#E9EFFD"/>
</linearGradient>
<linearGradient id="paint26_linear_118_307" x1="75.4712" y1="522.449" x2="121.531" y2="522.449" gradientUnits="userSpaceOnUse">
<stop stop-color="#DAE3FE"/>
<stop offset="1" stop-color="#E9EFFD"/>
</linearGradient>
<linearGradient id="paint27_linear_118_307" x1="24.1895" y1="522.325" x2="70.1547" y2="522.325" gradientUnits="userSpaceOnUse">
<stop stop-color="#DAE3FE"/>
<stop offset="1" stop-color="#E9EFFD"/>
</linearGradient>
<linearGradient id="paint28_linear_118_307" x1="505.509" y1="-250.072" x2="395.671" y2="460.407" gradientUnits="userSpaceOnUse">
<stop stop-color="#4042E2"/>
<stop offset="1" stop-color="#4F52FF"/>
</linearGradient>
<linearGradient id="paint29_linear_118_307" x1="276.623" y1="333.914" x2="514.166" y2="333.914" gradientUnits="userSpaceOnUse">
<stop stop-color="#4042E2"/>
<stop offset="1" stop-color="#4F52FF"/>
</linearGradient>
<linearGradient id="paint30_linear_118_307" x1="413.893" y1="97.7477" x2="474.455" y2="-57.2279" gradientUnits="userSpaceOnUse">
<stop stop-color="#09005D"/>
<stop offset="1" stop-color="#1A0F91"/>
</linearGradient>
<linearGradient id="paint31_linear_118_307" x1="420.464" y1="195.18" x2="287.686" y2="1215.66" gradientUnits="userSpaceOnUse">
<stop stop-color="#FEBBBA"/>
<stop offset="1" stop-color="#FF928E"/>
</linearGradient>
<linearGradient id="paint32_linear_118_307" x1="416.197" y1="194.625" x2="283.42" y2="1215.1" gradientUnits="userSpaceOnUse">
<stop stop-color="#FEBBBA"/>
<stop offset="1" stop-color="#FF928E"/>
</linearGradient>
<linearGradient id="paint33_linear_118_307" x1="425.483" y1="310.796" x2="626.985" y2="-133.454" gradientUnits="userSpaceOnUse">
<stop stop-color="#FE7062"/>
<stop offset="1" stop-color="#FF928E"/>
</linearGradient>
<linearGradient id="paint34_linear_118_307" x1="104.415" y1="545.174" x2="130.788" y2="545.174" gradientUnits="userSpaceOnUse">
<stop stop-color="#09005D"/>
<stop offset="1" stop-color="#1A0F91"/>
</linearGradient>
<linearGradient id="paint35_linear_118_307" x1="111.749" y1="518.097" x2="107.642" y2="557.842" gradientUnits="userSpaceOnUse">
<stop stop-color="#FEBBBA"/>
<stop offset="1" stop-color="#FF928E"/>
</linearGradient>
<linearGradient id="paint36_linear_118_307" x1="144.574" y1="545.778" x2="182.539" y2="545.778" gradientUnits="userSpaceOnUse">
<stop stop-color="#09005D"/>
<stop offset="1" stop-color="#1A0F91"/>
</linearGradient>
<linearGradient id="paint37_linear_118_307" x1="152.098" y1="522.284" x2="150.257" y2="562.161" gradientUnits="userSpaceOnUse">
<stop stop-color="#FEBBBA"/>
<stop offset="1" stop-color="#FF928E"/>
</linearGradient>
<linearGradient id="paint38_linear_118_307" x1="145.141" y1="555.502" x2="102.397" y2="329.492" gradientUnits="userSpaceOnUse">
<stop stop-color="#09005D"/>
<stop offset="1" stop-color="#1A0F91"/>
</linearGradient>
<linearGradient id="paint39_linear_118_307" x1="198.397" y1="249.12" x2="96.0754" y2="374.293" gradientUnits="userSpaceOnUse">
<stop stop-color="#4042E2"/>
<stop offset="1" stop-color="#4F52FF"/>
</linearGradient>
<linearGradient id="paint40_linear_118_307" x1="175.997" y1="255.485" x2="33.3071" y2="545.898" gradientUnits="userSpaceOnUse">
<stop stop-color="#4042E2"/>
<stop offset="1" stop-color="#4F52FF"/>
</linearGradient>
<linearGradient id="paint41_linear_118_307" x1="131.846" y1="287" x2="141.577" y2="257.536" gradientUnits="userSpaceOnUse">
<stop stop-color="#FEBBBA"/>
<stop offset="1" stop-color="#FF928E"/>
</linearGradient>
<linearGradient id="paint42_linear_118_307" x1="141.972" y1="194.125" x2="137.537" y2="231.679" gradientUnits="userSpaceOnUse">
<stop stop-color="#4042E2"/>
<stop offset="1" stop-color="#4F52FF"/>
</linearGradient>
<linearGradient id="paint43_linear_118_307" x1="151.48" y1="195.248" x2="147.045" y2="232.801" gradientUnits="userSpaceOnUse">
<stop stop-color="#4042E2"/>
<stop offset="1" stop-color="#4F52FF"/>
</linearGradient>
<linearGradient id="paint44_linear_118_307" x1="160.605" y1="243.778" x2="96.5956" y2="300.309" gradientUnits="userSpaceOnUse">
<stop stop-color="#FEBBBA"/>
<stop offset="1" stop-color="#FF928E"/>
</linearGradient>
<linearGradient id="paint45_linear_118_307" x1="133.692" y1="227.306" x2="161.642" y2="267.209" gradientUnits="userSpaceOnUse">
<stop stop-color="#09005D"/>
<stop offset="1" stop-color="#1A0F91"/>
</linearGradient>
<linearGradient id="paint46_linear_118_307" x1="153.588" y1="241.035" x2="121.961" y2="267.868" gradientUnits="userSpaceOnUse">
<stop stop-color="#FEBBBA"/>
<stop offset="1" stop-color="#FF928E"/>
</linearGradient>
<linearGradient id="paint47_linear_118_307" x1="234.788" y1="256.675" x2="168.638" y2="320.037" gradientUnits="userSpaceOnUse">
<stop stop-color="#FEBBBA"/>
<stop offset="1" stop-color="#FF928E"/>
</linearGradient>
<linearGradient id="paint48_linear_118_307" x1="236.302" y1="261.951" x2="171.911" y2="323.628" gradientUnits="userSpaceOnUse">
<stop stop-color="#FEBBBA"/>
<stop offset="1" stop-color="#FF928E"/>
</linearGradient>
<linearGradient id="paint49_linear_118_307" x1="237.477" y1="259.483" x2="171.327" y2="322.845" gradientUnits="userSpaceOnUse">
<stop stop-color="#FEBBBA"/>
<stop offset="1" stop-color="#FF928E"/>
</linearGradient>
<linearGradient id="paint50_linear_118_307" x1="145.786" y1="143.78" x2="306.101" y2="378.436" gradientUnits="userSpaceOnUse">
<stop stop-color="#E1473D"/>
<stop offset="1" stop-color="#E9605A"/>
</linearGradient>
<linearGradient id="paint51_linear_118_307" x1="342.265" y1="182.481" x2="314.3" y2="334.561" gradientUnits="userSpaceOnUse">
<stop stop-color="#FE7062"/>
<stop offset="1" stop-color="#FF928E"/>
</linearGradient>
<linearGradient id="paint52_linear_118_307" x1="165.788" y1="253.894" x2="453.486" y2="277.746" gradientUnits="userSpaceOnUse">
<stop stop-color="#FF9085"/>
<stop offset="1" stop-color="#FB6FBB"/>
</linearGradient>
<linearGradient id="paint53_linear_118_307" x1="296.791" y1="244.033" x2="354.913" y2="80.1667" gradientUnits="userSpaceOnUse">
<stop stop-color="#FE7062"/>
<stop offset="1" stop-color="#FF928E"/>
</linearGradient>
<linearGradient id="paint54_linear_118_307" x1="335.173" y1="74.0542" x2="325.133" y2="95.6244" gradientUnits="userSpaceOnUse">
<stop stop-color="#FE7062"/>
<stop offset="1" stop-color="#FF928E"/>
</linearGradient>
<linearGradient id="paint55_linear_118_307" x1="191.457" y1="305.91" x2="163.157" y2="462.447" gradientUnits="userSpaceOnUse">
<stop stop-color="#FEBBBA"/>
<stop offset="1" stop-color="#FF928E"/>
</linearGradient>
</defs>
</svg>
