<svg width="574" height="671" viewBox="0 0 574 671" fill="none" xmlns="http://www.w3.org/2000/svg">
<path d="M516.486 534.779H478.462V535.114H516.486V534.779Z" fill="#EBEBEB"/>
<path d="M380.241 538.421H370.261V538.756H380.241V538.421Z" fill="#EBEBEB"/>
<path d="M477.313 522.317H455.281V522.652H477.313V522.317Z" fill="#EBEBEB"/>
<path d="M109.808 524.572H60.2229V524.906H109.808V524.572Z" fill="#EBEBEB"/>
<path d="M127.301 524.572H120.03V524.906H127.301V524.572Z" fill="#EBEBEB"/>
<path d="M258.469 530.239H150.929V530.573H258.469V530.239Z" fill="#EBEBEB"/>
<path d="M273.684 453.328H52.0067C48.3939 453.328 45.4539 449.891 45.4539 445.668V81.4057C45.4539 77.1825 48.3939 73.7456 52.0067 73.7456H273.684C277.296 73.7456 280.236 77.1825 280.236 81.4057V445.668C280.236 449.891 277.296 453.328 273.684 453.328ZM52.0067 74.0824C48.5512 74.0824 45.7409 77.3677 45.7409 81.4071V445.669C45.7409 449.708 48.5512 452.993 52.0067 452.993H273.684C277.139 452.993 279.949 449.708 279.949 445.669V81.4057C279.949 77.3677 277.139 74.0811 273.684 74.0811L52.0067 74.0824Z" fill="#EBEBEB"/>
<path d="M521.993 453.328H300.316C296.704 453.328 293.764 449.891 293.764 445.668V81.4057C293.764 77.1825 296.704 73.7456 300.316 73.7456H521.993C525.607 73.7456 528.546 77.1825 528.546 81.4057V445.668C528.546 449.891 525.606 453.328 521.993 453.328ZM300.316 74.0824C296.861 74.0824 294.051 77.3677 294.051 81.4071V445.669C294.051 449.708 296.861 452.993 300.316 452.993H521.993C525.449 452.993 528.259 449.708 528.259 445.669V81.4057C528.259 77.3677 525.449 74.0811 521.993 74.0811L300.316 74.0824Z" fill="#EBEBEB"/>
<path d="M574 513.178H0V513.513H574V513.178Z" fill="#EBEBEB"/>
<path d="M136.992 422.395C136.022 409.434 124.704 404.582 111.292 405.954C97.8808 407.325 87.4547 414.402 88.4247 427.363L136.992 422.395Z" fill="#F0F0F0"/>
<path d="M110.849 400.03C117.073 399.394 119.06 393.248 118.515 385.971C117.971 378.695 115.101 373.045 108.876 373.683C102.652 374.319 100.665 380.465 101.21 387.741C101.754 395.018 104.624 400.668 110.849 400.03Z" fill="#F0F0F0"/>
<path d="M390.435 146.239C390.736 150.252 388.196 153.789 384.764 154.14C381.331 154.491 378.305 151.523 378.005 147.51C377.705 143.498 380.244 139.96 383.677 139.608C387.109 139.258 390.135 142.227 390.435 146.239Z" fill="#F5F5F5"/>
<path d="M424.959 142.708C425.259 146.721 422.72 150.259 419.288 150.609C415.855 150.96 412.829 147.992 412.528 143.979C412.227 139.967 414.767 136.429 418.199 136.078C421.633 135.727 424.658 138.696 424.959 142.708Z" fill="#F5F5F5"/>
<path d="M459.482 139.178C459.783 143.19 457.244 146.728 453.811 147.079C450.379 147.431 447.353 144.462 447.052 140.45C446.751 136.437 449.29 132.9 452.723 132.548C456.156 132.196 459.182 135.165 459.482 139.178Z" fill="#F5F5F5"/>
<path d="M393.514 187.375C393.815 191.388 391.275 194.925 387.843 195.277C384.41 195.629 381.384 192.66 381.083 188.648C380.782 184.635 383.322 181.098 386.754 180.747C390.188 180.394 393.214 183.361 393.514 187.375Z" fill="#F5F5F5"/>
<path d="M428.038 183.843C428.338 187.856 425.799 191.393 422.366 191.745C418.934 192.097 415.908 189.128 415.607 185.116C415.306 181.103 417.846 177.565 421.278 177.214C424.711 176.864 427.737 179.832 428.038 183.843Z" fill="#F5F5F5"/>
<path d="M462.561 180.312C462.862 184.325 460.323 187.863 456.89 188.213C453.458 188.564 450.432 185.596 450.131 181.583C449.83 177.571 452.369 174.033 455.802 173.682C459.234 173.333 462.261 176.301 462.561 180.312Z" fill="#F5F5F5"/>
<path d="M396.593 228.511C396.893 232.523 394.354 236.061 390.922 236.412C387.489 236.764 384.463 233.795 384.163 229.783C383.863 225.77 386.402 222.233 389.834 221.881C393.266 221.529 396.292 224.498 396.593 228.511Z" fill="#F5F5F5"/>
<path d="M431.116 224.98C431.417 228.992 428.878 232.53 425.445 232.881C422.013 233.233 418.987 230.264 418.686 226.252C418.385 222.239 420.925 218.702 424.357 218.351C427.79 217.999 430.816 220.967 431.116 224.98Z" fill="#F5F5F5"/>
<path d="M465.639 221.449C465.94 225.461 463.401 228.999 459.968 229.349C456.536 229.699 453.509 226.732 453.209 222.72C452.908 218.707 455.447 215.17 458.88 214.819C462.313 214.468 465.34 217.436 465.639 221.449Z" fill="#F5F5F5"/>
<path d="M458.181 223.818L387.25 231.072L450.14 141.739L385.703 148.33C384.95 148.407 384.286 147.756 384.221 146.875C384.155 145.995 384.712 145.219 385.465 145.143L456.395 137.888L393.506 227.221L457.943 220.63C458.696 220.554 459.36 221.205 459.425 222.084C459.49 222.964 458.934 223.741 458.181 223.818Z" fill="#E6E6E6"/>
<path d="M459.268 383.283C459.034 382.493 458.429 381.906 457.714 381.851C454.461 381.596 451.713 380.174 449.537 377.62C446.701 374.291 445.033 369.223 444.763 363.207C444.712 362.086 443.909 361.213 442.949 361.206C441.886 361.198 441.039 362.248 441.096 363.488C441.423 370.544 443.464 376.579 446.934 380.652C449.644 383.834 453.14 385.698 457.123 386.104C457.192 386.111 457.282 386.12 457.385 386.13C458.706 386.252 459.702 384.746 459.268 383.283Z" fill="#F0F0F0"/>
<path d="M455.6 409.042C440.384 407.485 429.413 395.363 425.94 376.446C425.719 375.239 426.376 374.052 427.416 373.841C428.377 373.646 429.316 374.358 429.52 375.473C432.631 392.485 442.398 403.38 455.919 404.763C470.748 406.28 486.674 394.875 489.527 366.124C489.643 364.96 490.512 364.099 491.51 364.201C492.533 364.306 493.3 365.373 493.18 366.565C490.446 393.672 475.2 411.047 455.6 409.042Z" fill="#F0F0F0"/>
<path d="M426.895 357.592C425.872 357.487 425.106 356.42 425.226 355.229C427.961 328.12 443.208 310.747 462.807 312.75C479.98 314.507 491.559 329.536 493.362 352.176C493.457 353.371 492.664 354.413 491.639 354.484H491.636C490.636 354.554 489.792 353.671 489.697 352.506C488.041 332.109 477.737 318.588 462.486 317.029C447.657 315.512 431.731 326.915 428.878 355.668C428.763 356.834 427.894 357.694 426.895 357.592Z" fill="#F0F0F0"/>
<path d="M456.347 397.543C453.519 397.254 450.865 396.482 448.431 395.238C447.44 394.732 447.031 393.338 447.549 392.228C448 391.26 449.007 390.842 449.869 391.286C452.158 392.461 454.688 393.152 457.415 393.327C468.662 394.08 480.532 384.768 481.695 362.268C482.411 348.41 478.351 337.217 470.77 331.863C469.957 331.289 469.655 330.088 470.074 329.092C470.55 327.961 471.758 327.543 472.681 328.194C481.454 334.386 486.165 347.02 485.363 362.527C484.241 384.223 472.661 398.652 457.204 397.617C456.918 397.596 456.631 397.572 456.347 397.543Z" fill="#F0F0F0"/>
<path d="M439.989 384.158C439.101 384.868 437.886 384.537 437.347 383.447C434.092 376.866 432.57 368.38 433.042 359.267C434.115 338.513 444.759 324.407 459.214 324.129C460.286 324.109 461.153 325.157 461.092 326.409V326.415C461.037 327.53 460.26 328.408 459.304 328.429C448.586 328.676 437.816 338.148 436.711 359.526C436.281 367.825 437.639 375.484 440.551 381.34C441.028 382.302 440.776 383.53 439.989 384.158Z" fill="#F0F0F0"/>
<path d="M465.089 382.403C464.715 381.408 465.042 380.26 465.839 379.699C470.666 376.301 473.631 369.169 473.682 360.574C473.722 353.688 472.013 347.864 468.868 344.173C466.444 341.326 463.309 339.892 459.551 339.9C453.892 339.918 449.309 343.543 446.769 349.921C446.37 350.925 445.376 351.4 444.486 351.017C443.475 350.583 442.994 349.221 443.451 348.08C446.592 340.244 452.484 335.626 459.541 335.603C464.247 335.595 468.374 337.505 471.472 341.142C475.313 345.651 477.403 352.561 477.356 360.602C477.297 370.746 473.642 379.249 467.688 383.411C466.752 384.066 465.529 383.572 465.089 382.403Z" fill="#F0F0F0"/>
<path d="M451.863 366.625C450.82 367.115 449.652 366.406 449.385 365.129C449.263 364.548 449.162 363.949 449.083 363.333C448.044 355.303 451.737 348.31 457.673 347.07C460.737 346.427 463.469 347.269 465.558 349.449C466.405 350.335 466.339 351.914 465.415 352.688L465.3 352.784C464.605 353.366 463.688 353.235 463.039 352.582C461.793 351.333 460.211 350.901 458.32 351.297C453.795 352.243 452.076 357.745 452.716 362.69C452.778 363.172 452.856 363.639 452.95 364.087C453.168 365.141 452.723 366.22 451.863 366.625Z" fill="#F0F0F0"/>
<path d="M457.934 374.888C457.929 374.888 457.923 374.886 457.919 374.886C456.653 374.755 455.953 373.096 456.629 371.836L456.785 371.545C457.123 370.914 457.728 370.567 458.364 370.619C458.908 370.662 459.485 370.622 460.087 370.495C464.038 369.669 465.85 365.369 465.819 360.999C465.811 359.908 466.458 358.966 467.38 358.804C468.457 358.613 469.476 359.55 469.496 360.825C469.605 367.828 466.079 373.608 460.734 374.724C459.769 374.925 458.832 374.98 457.934 374.888Z" fill="#F0F0F0"/>
<path d="M458.75 366.959C456.794 366.759 455.336 365.219 454.807 363.019C454.5 361.744 455.415 360.51 456.542 360.625L456.964 360.668C457.618 360.735 458.158 361.258 458.376 361.983C458.483 362.337 458.687 362.641 459.069 362.68C459.952 362.769 460.107 361.289 460.13 360.991C460.146 360.779 460.184 359.957 459.883 359.472C459.588 358.997 459.386 358.454 459.43 357.868C459.573 355.959 461.637 355.191 462.678 356.673C463.506 357.851 463.931 359.5 463.791 361.366C463.528 364.878 461.408 367.232 458.75 366.959Z" fill="#F0F0F0"/>
<path d="M424.225 318.93C423.214 318.827 422.466 317.786 422.555 316.603L423.947 297.995L439.865 299.623C440.877 299.726 441.624 300.768 441.536 301.95C441.447 303.132 440.556 304.006 439.545 303.903L427.288 302.649L426.216 316.978C426.127 318.16 425.235 319.034 424.225 318.93Z" fill="#F0F0F0"/>
<path d="M499.91 326.671C498.899 326.568 498.152 325.526 498.24 324.344L499.312 310.015L487.055 308.762C486.044 308.659 485.296 307.617 485.385 306.435C485.473 305.253 486.364 304.379 487.375 304.482L503.294 306.11L501.901 324.718C501.813 325.901 500.922 326.774 499.91 326.671Z" fill="#F0F0F0"/>
<path d="M494.268 426.716L478.35 425.088C477.338 424.985 476.591 423.943 476.679 422.761C476.768 421.579 477.659 420.705 478.67 420.808L490.927 422.062L492 407.733C492.088 406.551 492.979 405.677 493.99 405.781C495.002 405.884 495.749 406.925 495.66 408.108L494.268 426.716Z" fill="#F0F0F0"/>
<path d="M430.839 420.228L414.92 418.601L416.313 399.992C416.401 398.81 417.292 397.936 418.304 398.04C419.315 398.143 420.062 399.185 419.974 400.367L418.902 414.695L431.159 415.949C432.17 416.052 432.918 417.094 432.829 418.276C432.741 419.458 431.85 420.332 430.839 420.228Z" fill="#F0F0F0"/>
<path d="M85.7901 379.955C85.169 380.018 84.6202 379.481 84.5663 378.754L83.7099 367.314L93.4966 366.312C94.1188 366.249 94.6664 366.786 94.7203 367.514C94.7743 368.24 94.3151 368.881 93.6929 368.944L86.1563 369.714L86.8152 378.525C86.8715 379.252 86.4111 379.892 85.7901 379.955Z" fill="#E0E0E0"/>
<path d="M132.325 375.196C131.704 375.259 131.156 374.723 131.102 373.995L130.443 365.185L122.906 365.955C122.285 366.018 121.736 365.482 121.682 364.754C121.628 364.028 122.087 363.387 122.71 363.324L132.496 362.323L133.353 373.763C133.407 374.492 132.948 375.133 132.325 375.196Z" fill="#E0E0E0"/>
<path d="M137.147 424.461L127.36 425.462C126.739 425.525 126.19 424.989 126.137 424.261C126.083 423.535 126.542 422.894 127.164 422.831L134.701 422.06L134.042 413.25C133.988 412.523 134.447 411.883 135.069 411.819C135.69 411.756 136.239 412.293 136.293 413.021L137.147 424.461Z" fill="#E0E0E0"/>
<path d="M98.1471 428.45L88.3604 429.451L87.504 418.009C87.45 417.283 87.9092 416.641 88.5315 416.578C89.1525 416.515 89.7013 417.052 89.7552 417.779L90.4142 426.59L97.9508 425.819C98.5719 425.756 99.1206 426.293 99.1746 427.02C99.2285 427.745 98.7682 428.385 98.1471 428.45Z" fill="#E0E0E0"/>
<path d="M131.541 189.152L94.0809 192.984L93.314 182.736C92.5185 172.105 99.2699 162.7 108.363 161.77C117.458 160.84 125.503 168.732 126.298 179.362L126.744 185.317L132.149 184.764L131.703 178.809C130.647 164.694 119.965 154.217 107.89 155.452C95.8155 156.686 86.8531 169.174 87.9093 183.289L88.6807 193.596C84.3218 194.589 81.2187 199.288 81.6136 204.574L84.2896 240.329C84.7132 245.983 88.9769 250.165 93.8134 249.671L135.75 245.382C140.586 244.888 144.164 239.904 143.741 234.25L141.065 198.495C140.641 192.84 136.378 188.657 131.541 189.152ZM115.629 216.703L116.551 229.015C116.702 231.036 115.423 232.817 113.694 232.994C111.966 233.171 110.442 231.676 110.291 229.655L109.369 217.344C107.994 216.353 107.012 214.658 106.86 212.632C106.606 209.23 108.759 206.23 111.669 205.933C114.58 205.635 117.145 208.152 117.4 211.554C117.551 213.579 116.835 215.449 115.629 216.703Z" fill="#EBEBEB"/>
<path d="M195.671 209.879L191.884 202.662C189.832 202.994 188.154 202.994 186.102 202.662L182.315 209.879L181.588 209.654C179.148 208.896 176.793 207.752 174.591 206.259L173.94 205.817L175.546 197.982C175.676 197.348 176.221 196.957 176.764 197.109C177.307 197.26 177.642 197.898 177.511 198.533L176.257 204.644C177.893 205.686 179.613 206.52 181.385 207.135L185.084 200.084L185.753 200.212C187.898 200.621 190.086 200.621 192.23 200.212L192.9 200.084L196.598 207.135C198.371 206.519 200.091 205.686 201.727 204.644L200.08 196.612L200.631 196.151C202.133 194.889 203.472 193.398 204.621 191.711C204.962 191.209 205.569 191.091 206.013 191.466C206.475 191.854 206.583 192.619 206.23 193.139C205.101 194.806 203.803 196.298 202.359 197.592L204.046 205.817L203.396 206.259C201.194 207.752 198.839 208.896 196.399 209.654L195.671 209.879ZM172.458 194.123C172.14 193.697 171.833 193.26 171.538 192.81L164.5 194.78L164.123 194.021C162.845 191.447 161.867 188.695 161.218 185.841L161.025 184.992L167.199 180.565C167.057 179.362 166.988 178.251 166.988 177.186C166.988 176.121 167.058 175.009 167.199 173.806L161.025 169.38L161.218 168.531C161.867 165.678 162.845 162.925 164.123 160.351L164.5 159.592L171.536 161.562C172.715 159.764 174.087 158.161 175.626 156.782L174.349 150.558C174.219 149.924 174.553 149.288 175.094 149.136L175.098 149.135C175.639 148.983 176.184 149.374 176.313 150.006L177.902 157.76L177.347 158.227C175.583 159.711 174.037 161.519 172.768 163.58L172.372 164.223L165.501 162.299C164.612 164.211 163.899 166.221 163.372 168.293L169.401 172.616L169.292 173.398C169.099 174.782 169.005 176.021 169.005 177.184C169.005 178.35 169.099 179.588 169.292 180.97L169.401 181.751L163.371 186.076C163.897 188.15 164.611 190.159 165.5 192.071L172.371 190.147L172.767 190.789C173.14 191.396 173.541 191.985 173.963 192.55C174.315 193.02 174.305 193.722 173.921 194.155L173.884 194.197C173.48 194.657 172.83 194.619 172.458 194.123ZM213.484 194.782L210.89 194.056C210.347 193.904 210.013 193.267 210.143 192.632C210.272 191.999 210.818 191.607 211.361 191.758L212.481 192.072C213.371 190.16 214.084 188.15 214.611 186.078L208.58 181.752L208.689 180.971C208.882 179.589 208.976 178.35 208.976 177.186C208.976 176.021 208.882 174.783 208.689 173.4L208.58 172.617L214.609 168.295C214.084 166.221 213.37 164.212 212.48 162.3L205.609 164.224L205.213 163.582C203.945 161.52 202.398 159.713 200.635 158.228L200.079 157.761L201.725 149.73C200.09 148.689 198.37 147.855 196.597 147.239L192.898 154.288L192.229 154.162C190.084 153.756 187.895 153.756 185.75 154.162L185.082 154.288L181.383 147.24C181.153 147.319 180.924 147.404 180.694 147.491C180.182 147.687 179.631 147.365 179.446 146.774C179.251 146.153 179.528 145.453 180.065 145.247C180.569 145.054 181.077 144.878 181.584 144.721L182.312 144.494L186.099 151.713C188.16 151.379 189.818 151.379 191.879 151.713L195.666 144.494L196.394 144.72C198.835 145.479 201.189 146.623 203.391 148.115L204.041 148.557L202.355 156.783C203.893 158.163 205.265 159.765 206.444 161.563L213.48 159.593L213.857 160.353C215.135 162.927 216.113 165.679 216.762 168.532L216.955 169.382L210.781 173.808C210.923 175.01 210.992 176.123 210.992 177.187C210.992 178.252 210.922 179.364 210.781 180.566L216.955 184.993L216.762 185.843C216.113 188.696 215.135 191.448 213.857 194.022L213.484 194.782ZM188.709 188.685C183.58 188.516 179.303 183.518 179.156 177.522C179.008 171.479 182.871 166.432 187.856 165.76C188.459 165.678 188.993 166.229 188.993 166.939C188.993 167.535 188.613 168.036 188.107 168.103C183.71 168.685 180.407 173.546 181.328 179.027C181.926 182.586 184.379 185.454 187.425 186.149C192.422 187.291 196.814 182.827 196.814 177.186C196.814 175.297 196.316 173.47 195.399 171.938C195.109 171.455 195.188 170.795 195.566 170.404C196.02 169.936 196.727 170.034 197.073 170.615C198.215 172.534 198.835 174.822 198.835 177.186C198.832 183.639 194.265 188.868 188.709 188.685Z" fill="#F0F0F0"/>
<path d="M124.344 308.113L121.898 303.451C120.573 303.665 119.488 303.665 118.164 303.451L115.717 308.113L115.248 307.966C113.67 307.477 112.149 306.738 110.727 305.772L110.307 305.486L111.345 300.424C111.428 300.015 111.781 299.761 112.131 299.861C112.481 299.959 112.697 300.371 112.613 300.78L111.804 304.728C112.861 305.4 113.971 305.94 115.117 306.337L117.506 301.782L117.939 301.866C119.324 302.13 120.737 302.13 122.123 301.866L122.556 301.782L124.946 306.337C126.092 305.94 127.202 305.4 128.259 304.728L127.195 299.54L127.551 299.241C128.521 298.426 129.385 297.462 130.128 296.373C130.349 296.049 130.741 295.973 131.028 296.214C131.325 296.465 131.396 296.959 131.168 297.296C130.438 298.372 129.6 299.337 128.667 300.173L129.756 305.486L129.336 305.772C127.914 306.737 126.393 307.475 124.815 307.966L124.344 308.113ZM109.348 297.935C109.143 297.66 108.944 297.378 108.753 297.087L104.207 298.36L103.964 297.869C103.139 296.206 102.507 294.428 102.088 292.584L101.963 292.035L105.951 289.176C105.859 288.399 105.815 287.681 105.815 286.992C105.815 286.305 105.859 285.586 105.951 284.809L101.963 281.949L102.088 281.4C102.507 279.556 103.139 277.779 103.964 276.115L104.207 275.624L108.753 276.898C109.515 275.736 110.401 274.701 111.395 273.81L110.571 269.789C110.487 269.38 110.703 268.969 111.052 268.871L111.054 268.87C111.404 268.772 111.756 269.024 111.839 269.434L112.866 274.443L112.506 274.745C111.367 275.703 110.369 276.871 109.549 278.203L109.293 278.619L104.854 277.377C104.28 278.613 103.818 279.91 103.478 281.25L107.374 284.043L107.304 284.548C107.178 285.442 107.119 286.242 107.119 286.995C107.119 287.748 107.18 288.548 107.304 289.441L107.375 289.946L103.48 292.74C103.819 294.079 104.281 295.377 104.855 296.613L109.294 295.37L109.55 295.786C109.791 296.178 110.05 296.559 110.323 296.924C110.55 297.228 110.543 297.681 110.295 297.96L110.271 297.987C110.008 298.278 109.589 298.254 109.348 297.935ZM135.852 298.359L134.176 297.891C133.826 297.793 133.609 297.381 133.693 296.971C133.776 296.562 134.129 296.31 134.479 296.408L135.203 296.61C135.777 295.374 136.239 294.077 136.579 292.737L132.684 289.943L132.755 289.439C132.879 288.546 132.94 287.745 132.94 286.992C132.94 286.239 132.879 285.44 132.755 284.546L132.685 284.04L136.58 281.247C136.24 279.908 135.779 278.61 135.205 277.374L130.765 278.617L130.509 278.201C129.69 276.87 128.691 275.701 127.552 274.742L127.193 274.441L128.257 269.251C127.2 268.579 126.089 268.04 124.944 267.642L122.555 272.195L122.123 272.113C120.737 271.85 119.324 271.85 117.937 272.113L117.506 272.195L115.117 267.642C114.969 267.693 114.82 267.748 114.673 267.804C114.342 267.93 113.986 267.722 113.867 267.341C113.74 266.94 113.919 266.488 114.266 266.355C114.592 266.23 114.921 266.116 115.247 266.015L115.717 265.869L118.164 270.533C119.495 270.317 120.566 270.317 121.898 270.533L124.344 265.869L124.814 266.015C126.39 266.507 127.911 267.245 129.335 268.208L129.755 268.494L128.666 273.808C129.66 274.7 130.545 275.734 131.307 276.896L135.853 275.623L136.097 276.114C136.922 277.777 137.553 279.555 137.972 281.399L138.098 281.948L134.109 284.807C134.201 285.584 134.246 286.302 134.246 286.991C134.246 287.679 134.201 288.397 134.109 289.174L138.098 292.034L137.972 292.583C137.553 294.427 136.922 296.205 136.097 297.868L135.852 298.359ZM119.848 294.42C116.533 294.311 113.771 291.083 113.676 287.208C113.58 283.304 116.075 280.043 119.297 279.609C119.686 279.556 120.03 279.913 120.03 280.371C120.03 280.756 119.785 281.079 119.457 281.122C116.617 281.498 114.483 284.638 115.078 288.18C115.464 290.479 117.049 292.332 119.017 292.782C122.245 293.52 125.083 290.636 125.083 286.991C125.083 285.771 124.761 284.59 124.169 283.601C123.982 283.29 124.032 282.862 124.277 282.609C124.571 282.306 125.026 282.37 125.25 282.746C125.988 283.986 126.389 285.464 126.389 286.991C126.387 291.16 123.435 294.54 119.848 294.42Z" fill="#E6E6E6"/>
<path d="M287 573.055C409.93 573.055 509.585 566.252 509.585 557.86C509.585 549.468 409.93 542.665 287 542.665C164.07 542.665 64.4154 549.468 64.4154 557.86C64.4154 566.252 164.07 573.055 287 573.055Z" fill="#F5F5F5"/>
<path d="M417.241 195.7H379.861L353.421 548.98H390.801C401.431 548.98 410.836 538.871 411.766 526.444L434.833 218.236C435.762 205.809 427.871 195.7 417.241 195.7Z" fill="#407BFF"/>
<path d="M409.613 195.7H283.105C272.474 195.7 263.07 205.809 262.14 218.236L239.073 526.444C238.143 538.871 246.035 548.98 256.665 548.98H383.174C393.804 548.98 403.209 538.871 404.138 526.444L427.205 218.236C428.135 205.809 420.244 195.7 409.613 195.7Z" fill="#407BFF"/>
<path opacity="0.3" d="M409.613 195.7H283.105C272.474 195.7 263.07 205.809 262.14 218.236L239.073 526.444C238.143 538.871 246.035 548.98 256.665 548.98H383.174C393.804 548.98 403.209 538.871 404.138 526.444L427.205 218.236C428.135 205.809 420.244 195.7 409.613 195.7Z" fill="white"/>
<path opacity="0.4" d="M409.073 202.92H375.719C373.751 202.92 371.904 204.429 371.175 206.633C368.478 214.779 361.65 220.358 354.376 220.358H334.652C327.379 220.358 321.384 214.778 319.906 206.633C319.507 204.429 317.886 202.921 315.918 202.921H282.564C275.328 202.921 268.95 209.777 268.316 218.236L245.25 526.444C244.617 534.902 249.969 541.759 257.205 541.759H383.713C390.949 541.759 397.327 534.902 397.961 526.444L421.028 218.236C421.66 209.777 416.308 202.92 409.073 202.92Z" fill="white"/>
<path d="M377.558 370.336H289.019C286.394 370.336 284.453 367.847 284.682 364.78L285.125 358.857C285.355 355.788 287.669 353.302 290.295 353.302H378.833C381.459 353.302 383.4 355.79 383.17 358.857L382.727 364.78C382.497 367.847 380.183 370.336 377.558 370.336Z" fill="white"/>
<path d="M375.645 395.887H287.107C284.481 395.887 282.54 393.399 282.77 390.331L283.213 384.409C283.442 381.34 285.757 378.853 288.382 378.853H376.921C379.546 378.853 381.487 381.341 381.258 384.409L380.815 390.331C380.585 393.399 378.271 395.887 375.645 395.887Z" fill="white"/>
<path opacity="0.1" d="M350.657 208.693C350.402 212.096 347.836 214.854 344.925 214.854C342.013 214.854 339.861 212.096 340.116 208.693C340.37 205.29 342.936 202.532 345.848 202.532C348.758 202.532 350.911 205.29 350.657 208.693Z" fill="black"/>
<path opacity="0.1" d="M348.265 208.693C348.126 210.552 346.725 212.059 345.134 212.059C343.544 212.059 342.367 210.552 342.506 208.693C342.645 206.834 344.046 205.327 345.638 205.327C347.229 205.327 348.404 206.834 348.265 208.693Z" fill="black"/>
<g opacity="0.8">
<path d="M393.499 218.97C392.646 218.97 392.014 218.162 392.089 217.165L392.336 213.865C392.41 212.868 393.162 212.06 394.015 212.06C394.868 212.06 395.5 212.868 395.425 213.865L395.178 217.165C395.104 218.162 394.352 218.97 393.499 218.97Z" fill="white"/>
<path d="M405.854 218.97C405.001 218.97 404.369 218.162 404.444 217.165L405.024 209.42C405.098 208.423 405.85 207.615 406.703 207.615C407.556 207.615 408.187 208.423 408.113 209.42L407.533 217.165C407.458 218.162 406.707 218.97 405.854 218.97Z" fill="white"/>
<path d="M399.676 218.97C398.823 218.97 398.192 218.162 398.266 217.165L398.68 211.643C398.754 210.646 399.506 209.838 400.359 209.838C401.212 209.838 401.844 210.646 401.769 211.643L401.356 217.165C401.281 218.162 400.529 218.97 399.676 218.97Z" fill="white"/>
</g>
<g opacity="0.8">
<path d="M287.729 218.97H279.974C279.491 218.97 279.134 218.512 279.176 217.947L279.54 213.08C279.583 212.515 280.009 212.057 280.491 212.057H288.246C288.729 212.057 289.086 212.515 289.043 213.08L288.68 217.947C288.637 218.512 288.212 218.97 287.729 218.97Z" fill="white"/>
<path d="M291.324 217.65C290.841 217.65 290.484 217.192 290.527 216.627L290.693 214.401C290.736 213.836 291.161 213.378 291.644 213.378C292.127 213.378 292.484 213.836 292.442 214.401L292.275 216.627C292.234 217.192 291.808 217.65 291.324 217.65Z" fill="white"/>
</g>
<path d="M362.984 331.408C378.432 314.122 379.971 286.695 366.422 270.149C352.873 253.602 329.366 254.202 313.918 271.488C298.47 288.774 296.93 316.201 310.48 332.747C324.029 349.294 347.536 348.694 362.984 331.408Z" fill="white"/>
<path d="M338.569 299.775C328.828 299.775 320.607 304.107 319.903 313.521L319.121 323.968H354.398L355.18 313.521C355.883 304.107 348.311 299.775 338.569 299.775Z" fill="#407BFF"/>
<path d="M338.892 295.472C343.413 295.472 345.497 291.188 345.892 285.904C346.288 280.619 344.844 276.335 340.323 276.335C335.803 276.335 333.718 280.619 333.322 285.904C332.927 291.188 334.371 295.472 338.892 295.472Z" fill="#407BFF"/>
<path d="M373.517 361.513C371.111 361.513 369.08 362.583 368.906 364.908L368.713 367.489H377.427L377.62 364.908C377.793 362.583 375.923 361.513 373.517 361.513Z" fill="#407BFF"/>
<path d="M373.596 360.45C374.713 360.45 375.227 359.392 375.325 358.087C375.422 356.781 375.066 355.724 373.949 355.724C372.832 355.724 372.318 356.783 372.221 358.087C372.123 359.393 372.48 360.45 373.596 360.45Z" fill="#407BFF"/>
<path d="M346.689 421.439H312.239C308.215 421.439 305.238 417.626 305.591 412.921C305.943 408.218 309.49 404.404 313.514 404.404H347.965C351.988 404.404 354.965 408.218 354.613 412.921C354.26 417.626 350.713 421.439 346.689 421.439Z" fill="#407BFF"/>
<path d="M342.533 516.426H305.663C301.411 516.426 298.265 512.396 298.637 507.425L300.99 475.989C301.361 471.018 305.11 466.988 309.362 466.988H346.232C350.484 466.988 353.63 471.018 353.258 475.989L350.906 507.425C350.534 512.396 346.786 516.426 342.533 516.426Z" fill="#407BFF"/>
<g opacity="0.6">
<path d="M331.162 483.929C331.386 480.938 329.493 478.513 326.934 478.513C324.375 478.513 322.12 480.938 321.896 483.929C321.763 485.71 322.391 487.277 323.452 488.264L322.642 499.088C322.509 500.865 323.633 502.305 325.153 502.305C326.673 502.305 328.012 500.865 328.145 499.088L328.956 488.264C330.167 487.277 331.029 485.711 331.162 483.929Z" fill="white"/>
</g>
<path d="M346.559 473.531H341.808L342.972 457.978C343.671 448.631 337.736 441.027 329.74 441.027C321.744 441.027 314.67 448.631 313.971 457.978L312.807 473.531H308.055L309.22 457.978C310.148 445.568 319.54 435.472 330.156 435.472C340.771 435.472 348.652 445.568 347.723 457.978L346.559 473.531Z" fill="#407BFF"/>
<path d="M374.1 385.334L374.211 383.841C374.326 382.315 373.357 381.075 372.052 381.075C370.747 381.075 369.593 382.317 369.479 383.841L369.368 385.334C368.847 385.334 368.387 385.827 368.343 386.437L368.045 390.404C367.999 391.013 368.385 391.507 368.906 391.507H373.636C374.157 391.507 374.616 391.013 374.662 390.404L374.96 386.437C375.006 385.827 374.621 385.334 374.1 385.334ZM372.001 381.757C372.984 381.757 373.713 382.691 373.628 383.84L373.517 385.332H369.952L370.064 383.84C370.15 382.691 371.019 381.757 372.001 381.757Z" fill="#407BFF"/>
<path d="M302.896 386.923L301.246 386.524C301.05 386.477 300.949 386.237 301.031 386.011L301.719 384.111C301.867 383.703 301.442 383.401 301.174 383.725L299.926 385.228C299.778 385.406 299.541 385.406 299.42 385.228L298.397 383.725C298.178 383.403 297.709 383.703 297.795 384.111L298.198 386.011C298.246 386.237 298.109 386.477 297.906 386.524L296.195 386.923C295.828 387.009 295.783 387.611 296.138 387.697L297.789 388.096C297.984 388.143 298.085 388.383 298.004 388.608L297.316 390.508C297.168 390.916 297.593 391.218 297.86 390.895L299.108 389.392C299.256 389.213 299.494 389.213 299.614 389.392L300.637 390.895C300.856 391.218 301.326 390.916 301.24 390.508L300.837 388.608C300.789 388.383 300.925 388.143 301.128 388.096L302.839 387.697C303.206 387.611 303.251 387.007 302.896 386.923Z" fill="#263238"/>
<path d="M313.76 386.923L312.109 386.524C311.914 386.477 311.813 386.237 311.894 386.011L312.582 384.111C312.73 383.703 312.305 383.401 312.038 383.725L310.79 385.228C310.642 385.406 310.405 385.406 310.284 385.228L309.261 383.725C309.042 383.403 308.572 383.703 308.658 384.111L309.061 386.011C309.109 386.237 308.972 386.477 308.77 386.524L307.059 386.923C306.692 387.009 306.647 387.611 307 387.697L308.651 388.096C308.846 388.143 308.947 388.383 308.866 388.608L308.178 390.508C308.03 390.916 308.455 391.218 308.722 390.895L309.97 389.392C310.118 389.213 310.355 389.213 310.477 389.392L311.499 390.895C311.719 391.218 312.188 390.916 312.102 390.508L311.699 388.608C311.651 388.383 311.789 388.143 311.991 388.096L313.701 387.697C314.07 387.611 314.115 387.007 313.76 386.923Z" fill="#263238"/>
<path d="M324.623 386.923L322.973 386.524C322.777 386.477 322.676 386.237 322.758 386.011L323.446 384.111C323.594 383.703 323.169 383.401 322.901 383.725L321.654 385.228C321.505 385.406 321.268 385.406 321.147 385.228L320.124 383.725C319.905 383.403 319.436 383.703 319.522 384.111L319.925 386.011C319.973 386.237 319.836 386.477 319.633 386.524L317.923 386.923C317.555 387.009 317.51 387.611 317.864 387.697L319.515 388.096C319.71 388.143 319.811 388.383 319.729 388.608L319.042 390.508C318.894 390.916 319.318 391.218 319.586 390.895L320.834 389.392C320.982 389.213 321.22 389.213 321.34 389.392L322.363 390.895C322.582 391.218 323.052 390.916 322.966 390.508L322.563 388.608C322.515 388.383 322.651 388.143 322.854 388.096L324.565 387.697C324.933 387.611 324.978 387.007 324.623 386.923Z" fill="#263238"/>
<path d="M335.488 386.923L333.837 386.524C333.642 386.477 333.541 386.237 333.623 386.011L334.31 384.111C334.458 383.703 334.034 383.401 333.766 383.725L332.518 385.228C332.37 385.406 332.132 385.406 332.012 385.228L330.989 383.725C330.77 383.403 330.3 383.703 330.386 384.111L330.789 386.011C330.838 386.237 330.701 386.477 330.498 386.524L328.787 386.923C328.42 387.009 328.375 387.611 328.73 387.697L330.381 388.096C330.576 388.143 330.677 388.383 330.595 388.608L329.908 390.508C329.76 390.916 330.184 391.218 330.452 390.895L331.7 389.392C331.848 389.213 332.085 389.213 332.206 389.392L333.229 390.895C333.448 391.218 333.918 390.916 333.831 390.508L333.429 388.608C333.38 388.383 333.517 388.143 333.72 388.096L335.431 387.697C335.797 387.611 335.843 387.007 335.488 386.923Z" fill="#263238"/>
<path d="M346.352 386.923L344.701 386.524C344.506 386.477 344.405 386.237 344.486 386.011L345.174 384.111C345.322 383.703 344.897 383.401 344.63 383.725L343.382 385.228C343.234 385.406 342.996 385.406 342.875 385.228L341.853 383.725C341.633 383.403 341.164 383.703 341.25 384.111L341.653 386.011C341.701 386.237 341.564 386.477 341.361 386.524L339.651 386.923C339.283 387.009 339.239 387.611 339.592 387.697L341.243 388.096C341.438 388.143 341.539 388.383 341.458 388.608L340.77 390.508C340.623 390.916 341.047 391.218 341.314 390.895L342.562 389.392C342.71 389.213 342.947 389.213 343.068 389.392L344.091 390.895C344.31 391.218 344.78 390.916 344.694 390.508L344.291 388.608C344.243 388.383 344.38 388.143 344.583 388.096L346.293 387.697C346.66 387.611 346.706 387.007 346.352 386.923Z" fill="#263238"/>
<path d="M357.215 386.923L355.564 386.524C355.369 386.477 355.268 386.237 355.35 386.011L356.037 384.111C356.184 383.703 355.761 383.401 355.493 383.725L354.245 385.228C354.097 385.406 353.861 385.406 353.739 385.228L352.716 383.725C352.497 383.403 352.027 383.703 352.113 384.111L352.516 386.011C352.565 386.237 352.427 386.477 352.225 386.524L350.514 386.923C350.147 387.009 350.102 387.611 350.456 387.697L352.107 388.096C352.302 388.143 352.403 388.383 352.321 388.608L351.634 390.508C351.485 390.916 351.91 391.218 352.178 390.895L353.426 389.392C353.574 389.213 353.811 389.213 353.932 389.392L354.955 390.895C355.174 391.218 355.643 390.916 355.557 390.508L355.154 388.608C355.106 388.383 355.243 388.143 355.446 388.096L357.157 387.697C357.524 387.611 357.57 387.007 357.215 386.923Z" fill="#263238"/>
<path d="M331.029 359.135H310.632C309.364 359.135 308.247 360.336 308.136 361.818C308.024 363.299 308.962 364.501 310.23 364.501H330.627C331.895 364.501 333.012 363.299 333.123 361.818C333.235 360.336 332.297 359.135 331.029 359.135Z" fill="#263238"/>
<path d="M351.736 359.135H339.9C338.632 359.135 337.515 360.336 337.404 361.818C337.293 363.299 338.231 364.501 339.498 364.501H351.334C352.601 364.501 353.718 363.299 353.83 361.818C353.941 360.336 353.003 359.135 351.736 359.135Z" fill="#263238"/>
<path d="M367.361 480.79C359.671 484.38 352.928 489.617 348.314 495.571C345.608 492.879 341.761 491.01 337.149 490.155L336.609 490.054L336.372 493.22L336.674 493.353C341.226 495.363 344.93 498.93 347.388 503.666L347.774 504.411L348.201 503.612C352.931 494.76 359.828 487.345 367.621 482.731L367.885 482.574L368.042 480.469L367.361 480.79Z" fill="#263238"/>
<path opacity="0.2" d="M264.78 216.564C263.347 219.512 262.401 222.802 262.139 226.287L245.043 454.723H297.939L308.567 407.092L305.07 359.46L315.698 311.829L312.2 264.197L322.828 216.565H264.78V216.564Z" fill="black"/>
<path d="M307.608 250.777L318.235 203.144H184.465L173.837 250.777L177.336 298.408L166.708 346.04L170.206 393.673L159.578 441.305H293.347L303.975 393.673L300.478 346.04L311.105 298.408L307.608 250.777Z" fill="#407BFF"/>
<path opacity="0.7" d="M307.608 250.777L318.235 203.144H184.465L173.837 250.777L177.336 298.408L166.708 346.04L170.206 393.673L159.578 441.305H293.347L303.975 393.673L300.478 346.04L311.105 298.408L307.608 250.777Z" fill="white"/>
<path opacity="0.5" d="M307.607 250.777H173.837L184.465 203.144H318.235L307.607 250.777Z" fill="white"/>
<path opacity="0.5" d="M300.478 346.04H166.708L177.336 298.408H311.106L300.478 346.04Z" fill="white"/>
<path opacity="0.5" d="M293.347 441.304H159.578L170.206 393.673H303.975L293.347 441.304Z" fill="white"/>
<path opacity="0.2" d="M289.707 270.681C288.558 271.101 287.086 271.354 285.482 271.354C283.121 271.354 281.045 270.807 279.865 269.985C279.541 269.758 279.186 269.645 278.83 269.645C278.499 269.645 278.17 269.754 277.864 269.949C277.841 269.963 277.816 269.969 277.794 269.985C277.782 269.994 277.766 270.001 277.753 270.01C277.315 270.308 276.764 270.57 276.122 270.781C275.018 271.142 273.655 271.355 272.178 271.355C271.778 271.355 271.384 271.339 271.003 271.309C269.858 271.218 268.815 270.998 267.954 270.684C267.803 270.629 267.652 270.597 267.504 270.585C266.462 270.504 265.527 271.438 265.527 272.729V274.184H213.533C209.509 274.184 206.246 277.997 206.246 282.702V291.285C206.246 295.989 209.509 299.803 213.533 299.803H272.686C272.816 299.803 272.943 299.788 273.072 299.78C273.711 300.397 274.375 301.013 275.079 301.637C275.922 302.383 276.809 303.14 277.739 303.929C278.387 304.478 279.275 304.478 279.923 303.929C287.361 297.623 292.136 293.274 292.136 281.323V272.731C292.135 271.253 290.912 270.241 289.707 270.681Z" fill="black"/>
<path d="M271.555 295.072H212.402C208.378 295.072 205.115 291.26 205.115 286.555V277.971C205.115 273.268 208.377 269.454 212.402 269.454H271.555C275.579 269.454 278.841 273.266 278.841 277.971V286.555C278.841 291.258 275.579 295.072 271.555 295.072Z" fill="#407BFF"/>
<path d="M284.353 266.625C281.991 266.625 279.917 266.078 278.736 265.256C278.087 264.803 277.313 264.803 276.665 265.256C275.484 266.078 273.41 266.625 271.047 266.625C269.443 266.625 267.972 266.372 266.823 265.954C265.619 265.513 264.395 266.524 264.395 268V276.593C264.395 288.543 269.17 292.893 276.608 299.199C277.256 299.748 278.144 299.748 278.792 299.199C286.23 292.893 291.005 288.543 291.005 276.593V268C291.005 266.524 289.783 265.513 288.577 265.954C287.428 266.372 285.958 266.625 284.353 266.625Z" fill="#407BFF"/>
<path opacity="0.3" d="M284.353 266.625C281.991 266.625 279.917 266.078 278.736 265.256C278.087 264.803 277.313 264.803 276.665 265.256C275.484 266.078 273.41 266.625 271.047 266.625C269.443 266.625 267.972 266.372 266.823 265.954C265.619 265.513 264.395 266.524 264.395 268V276.593C264.395 288.543 269.17 292.893 276.608 299.199C277.256 299.748 278.144 299.748 278.792 299.199C286.23 292.893 291.005 288.543 291.005 276.593V268C291.005 266.524 289.783 265.513 288.577 265.954C287.428 266.372 285.958 266.625 284.353 266.625Z" fill="white"/>
<path opacity="0.2" d="M276.665 265.256C275.484 266.078 273.41 266.625 271.047 266.625C269.443 266.625 267.972 266.372 266.823 265.954C265.619 265.513 264.395 266.524 264.395 267.999V276.593C264.395 288.543 269.17 292.893 276.608 299.199C276.932 299.473 277.316 299.611 277.7 299.611V264.916C277.344 264.916 276.988 265.029 276.665 265.256Z" fill="white"/>
<path d="M288.362 274.247C283.555 276.572 279.442 279.963 276.743 283.82C274.86 282.076 272.278 280.866 269.25 280.312L268.895 280.247V282.298L269.097 282.384C272.143 283.685 274.714 285.996 276.536 289.063L276.822 289.545L277.06 289.028C279.694 283.295 283.802 278.492 288.624 275.505L288.789 275.403V274.041L288.362 274.247Z" fill="#263238"/>
<path d="M315.873 216.538H310.798C307.983 216.538 305.902 213.872 306.147 210.581L306.592 204.648C306.839 201.358 309.319 198.691 312.134 198.691H317.21C320.025 198.691 322.106 201.359 321.86 204.648L321.416 210.581C321.169 213.872 318.688 216.538 315.873 216.538Z" fill="#407BFF"/>
<path d="M317.982 204.636L316.881 203.224L314.109 206.204L311.783 203.224L310.47 204.636L312.796 207.615L310.024 210.595L311.126 212.006L313.898 209.027L316.224 212.006L317.537 210.595L315.211 207.615L317.982 204.636Z" fill="white"/>
<path d="M202.475 267.721C205.417 271.461 208.229 275.335 211.005 279.246C213.784 283.153 216.494 287.129 219.172 291.14C219.289 291.315 219.242 291.244 219.269 291.296C219.282 291.319 219.284 291.356 219.3 291.375C219.33 291.414 219.346 291.478 219.382 291.513C219.434 291.613 219.511 291.684 219.588 291.778C219.751 291.948 219.974 292.078 220.222 292.132C220.345 292.153 220.475 292.175 220.607 292.159C220.678 292.169 220.741 292.144 220.816 292.141C220.855 292.143 220.883 292.118 220.921 292.113C220.98 292.084 220.943 292.144 221.101 292.034L223.977 290.212C227.834 287.824 231.723 285.49 235.744 283.395L239.105 288.262C235.866 291.747 232.492 296.106 229.087 299.3L226.515 301.663C226.45 301.733 226.173 301.945 226 302.08C225.801 302.229 225.607 302.39 225.397 302.522C224.98 302.79 224.56 303.058 224.114 303.265C223.232 303.711 222.291 303.994 221.337 304.166C219.423 304.498 217.435 304.273 215.578 303.496C214.653 303.107 213.756 302.587 212.94 301.924C212.522 301.608 212.14 301.236 211.759 300.862C211.567 300.675 211.396 300.467 211.217 300.264L210.76 299.724C207.723 296.081 204.718 292.404 201.782 288.657C198.843 284.913 195.938 281.136 193.165 277.222L202.475 267.721Z" fill="#B55B52"/>
<path d="M234.181 286.359L236.857 276.311L243.901 280.415C243.901 280.415 242.874 287.746 237.746 289.017L234.181 286.359Z" fill="#B55B52"/>
<path d="M239.683 273.524L246.036 275.569L243.902 280.414L236.858 276.31L239.683 273.524Z" fill="#B55B52"/>
<path d="M165.42 270.459C164.653 274.728 163.716 278.948 162.735 283.157C161.758 287.366 160.691 291.551 159.582 295.723L159.169 297.288L158.962 298.07C158.919 298.241 158.89 298.284 158.851 298.398C158.725 298.794 158.649 299.223 158.634 299.674C158.615 300.568 158.796 301.562 159.296 302.426C159.338 302.566 159.734 303.052 160.043 303.444L160.996 304.654L162.875 307.114C164.112 308.774 165.345 310.439 166.516 312.191L162.515 317.604C160.863 316.505 159.275 315.32 157.689 314.13L155.335 312.314L154.171 311.387C153.775 311.065 153.457 310.849 152.823 310.235C150.639 308.071 149.008 304.998 148.41 301.585C148.105 299.882 148.03 298.106 148.2 296.348C148.245 295.927 148.312 295.436 148.368 295.075L148.489 294.268L148.733 292.655C149.377 288.351 150.063 284.06 150.838 279.792C151.609 275.525 152.426 271.269 153.411 267.062L165.42 270.459Z" fill="#B55B52"/>
<path d="M162.586 311.808L167.322 308.977L169.412 318.388C169.412 318.388 165.61 320.091 162.668 317.904L162.586 311.808Z" fill="#B55B52"/>
<path d="M173.867 305.967L174.082 314.6L168.793 318.643L166.958 309.159L173.867 305.967Z" fill="#B55B52"/>
<path d="M189.353 226.085C189.469 226.751 189.864 227.218 190.236 227.129C190.608 227.041 190.816 226.43 190.7 225.765C190.584 225.099 190.189 224.632 189.817 224.72C189.446 224.809 189.239 225.42 189.353 226.085Z" fill="#263238"/>
<path d="M189.813 227.23C189.813 227.23 191.773 230.759 193.519 232.272C192.703 233.61 190.906 233.515 190.906 233.515L189.813 227.23Z" fill="#A02724"/>
<path d="M186.628 222.886C186.545 222.886 186.462 222.851 186.396 222.78C186.258 222.631 186.249 222.379 186.378 222.216C187.658 220.597 189.211 220.885 189.279 220.897C189.465 220.935 189.589 221.14 189.558 221.357C189.526 221.573 189.348 221.718 189.166 221.684C189.115 221.674 187.9 221.466 186.879 222.757C186.812 222.843 186.72 222.886 186.628 222.886Z" fill="#263238"/>
<path d="M172.798 235.44C174.064 241.596 175.328 252.876 170.809 256.982C170.809 256.982 172.574 263.227 184.579 263.227C197.779 263.227 190.887 259.205 190.887 259.205C183.683 257.566 183.868 250.251 185.123 245.468L172.798 235.44Z" fill="#B55B52"/>
<path d="M169.402 258.124C168.616 256.413 167.749 254.457 169.541 253.843C171.512 253.168 184.176 251.918 187.895 253.184C186.752 255.561 188.688 258.483 188.688 258.483L169.402 258.124Z" fill="#263238"/>
<path d="M179.887 546.085H188.17L188.994 526.598H180.712L179.887 546.085Z" fill="#B55B52"/>
<path d="M127.328 543.401L135.717 543.919L140.815 524.722L132.425 524.203L127.328 543.401Z" fill="#B55B52"/>
<path d="M135.461 543.143L127.557 541.143C127.27 541.07 126.977 541.241 126.854 541.553L124.11 548.511C123.826 549.233 124.202 550.08 124.869 550.235C127.638 550.877 129.015 551.028 132.49 551.907C134.628 552.448 139.454 553.823 142.408 554.571C145.297 555.302 146.379 552.002 145.228 551.387C140.064 548.63 137.907 546.201 136.509 543.938C136.257 543.531 135.882 543.251 135.461 543.143Z" fill="#263238"/>
<path d="M187.731 545.111H179.871C179.577 545.111 179.322 545.35 179.258 545.685L177.836 553.164C177.689 553.94 178.191 554.674 178.871 554.661C181.707 554.604 185.804 554.41 189.368 554.41C193.536 554.41 197.135 554.675 202.022 554.675C204.977 554.675 205.796 551.183 204.56 550.867C198.929 549.427 194.331 549.272 189.465 545.766C188.937 545.385 188.352 545.111 187.731 545.111Z" fill="#263238"/>
<path d="M155.812 259.827C149.561 263.302 147.862 284.364 147.862 284.364L163.326 292.717C163.326 292.717 167.164 286.108 167.458 275.715C167.765 264.828 162.203 256.275 155.812 259.827Z" fill="#263238"/>
<path opacity="0.4" d="M164.201 272.816C161.409 277.882 161.673 285.721 162.639 292.345L163.323 292.72C163.323 292.72 167.165 286.102 167.46 275.712C167.477 275.063 167.475 274.417 167.455 273.789L164.201 272.816Z" fill="black"/>
<path d="M198.963 259.319C198.963 259.319 206.625 269.435 199.389 332.048C187.789 332.048 166.533 332.048 160.889 332.048C160.624 325.14 164.337 291.438 158.636 258.885C158.636 258.885 165.236 257.336 171.525 256.982C176.444 256.706 183.566 256.522 187.891 256.982C193.593 257.591 198.963 259.319 198.963 259.319Z" fill="#407BFF"/>
<path opacity="0.6" d="M198.963 259.319C198.963 259.319 206.625 269.435 199.389 332.048C187.789 332.048 166.533 332.048 160.889 332.048C160.624 325.14 164.337 291.438 158.636 258.885C158.636 258.885 165.236 257.336 171.525 256.982C176.444 256.706 183.566 256.522 187.891 256.982C193.593 257.591 198.963 259.319 198.963 259.319Z" fill="#FAFAFA"/>
<path opacity="0.2" d="M202.328 278.456L202.181 278.307L194.524 273.524C193.746 287.306 199.016 295.946 202.151 299.725C202.583 290.895 202.573 283.93 202.328 278.456Z" fill="black"/>
<path opacity="0.2" d="M188.993 526.604L188.569 536.648H180.283L180.707 526.604H188.993Z" fill="black"/>
<path opacity="0.2" d="M132.423 524.208L140.815 524.727L138.182 534.622L129.791 534.104L132.423 524.208Z" fill="black"/>
<path d="M170.132 229.184C171.982 237.251 172.713 242.082 176.972 245.436C183.377 250.48 191.352 244.691 191.601 236.141C191.826 228.446 188.763 216.548 181.359 214.921C174.063 213.32 168.283 221.117 170.132 229.184Z" fill="#B55B52"/>
<path d="M185.731 332.048C185.731 332.048 177.562 396.353 173.078 420.445C168.167 446.826 141.834 534.109 141.834 534.109L128.949 530.848C128.949 530.848 145.462 459.718 149.583 422.836C151.192 408.443 153.133 385.243 155.59 365.899C157.968 347.166 160.889 332.048 160.889 332.048H185.731Z" fill="#263238"/>
<path d="M144.919 529.079C144.974 529.093 142.517 534.526 142.517 534.526L128.02 530.857L129.243 525.763L144.919 529.079Z" fill="#407BFF"/>
<path opacity="0.6" d="M144.919 529.079C144.974 529.093 142.517 534.526 142.517 534.526L128.02 530.857L129.243 525.763L144.919 529.079Z" fill="white"/>
<path opacity="0.6" d="M180.569 354.959C171.123 357.124 172.123 398.3 173.26 419.48C175.984 404.51 179.971 375.702 182.695 355.257C182.068 354.89 181.362 354.776 180.569 354.959Z" fill="black"/>
<path d="M199.389 332.048C199.389 332.048 203.232 394.961 202.449 420.622C201.635 447.311 190.809 534.704 190.809 534.704H178.615C178.615 534.704 178.167 448.871 177.625 422.659C177.034 394.082 174.083 332.048 174.083 332.048H199.389Z" fill="#263238"/>
<path d="M193.154 529.026C193.211 529.026 192.467 534.944 192.467 534.944H177.633L177.233 529.662L193.154 529.026Z" fill="#407BFF"/>
<path opacity="0.6" d="M193.154 529.026C193.211 529.026 192.467 534.944 192.467 534.944H177.633L177.233 529.662L193.154 529.026Z" fill="white"/>
<path d="M194.47 271.104C194.47 287.988 202.156 294.939 202.156 294.939L214.648 280.663C214.648 280.663 210.401 272.108 204.56 264.255C197.342 254.552 194.47 260.247 194.47 271.104Z" fill="#263238"/>
<path opacity="0.2" d="M191.164 239.197C190.847 240.231 190.015 241.985 187.924 242.684C184.875 243.704 184.835 246.725 184.835 246.725L184.873 246.782C187.782 245.658 190.204 242.848 191.164 239.197Z" fill="black"/>
<path d="M187.925 213.151C190.499 209.357 186.54 209.176 186.54 209.176C187.568 204.647 182.937 207.085 182.937 207.085C180.157 202.606 178.589 208.057 178.589 208.057C175.705 204.262 175.174 210.464 175.174 210.464C172.283 205.651 170.81 212.594 170.81 212.594C168.146 207.595 166.516 214.108 166.516 214.108C161.017 211.806 163.631 218.487 163.631 218.487C158.937 218.641 162.703 222.886 162.703 222.886C157.08 222.902 162.038 226.666 162.038 226.666C157.572 230.091 163.178 231.013 163.178 231.013C159.534 237.673 165.791 235.203 165.791 235.203C163.256 241.795 168.877 238.891 168.877 238.891C168.511 245.252 171.655 243.521 173.165 242.342C173.457 243.624 174.001 244.981 175.011 245.135C176.972 245.434 177.353 241.108 177.353 241.108C177.353 241.108 179.173 242.762 180.699 241.866C182.224 240.969 181.649 238.7 181.649 238.7C181.649 238.7 182.817 239.719 183.887 238.747C184.541 238.153 184.544 233.881 183.71 232.379L186.698 231.012C186.698 231.012 188.916 230.647 187.925 227.229C186.936 223.812 187.775 221.113 187.775 221.113C191.148 219.265 188.381 217.043 188.381 217.043C192.281 214.089 187.925 213.151 187.925 213.151Z" fill="#263238"/>
<path d="M181.872 229.522C182.341 231.64 183.532 233.46 184.776 234.543C186.65 236.172 188.048 234.568 187.915 232.091C187.796 229.86 186.676 226.326 184.61 225.664C182.576 225.012 181.336 227.101 181.872 229.522Z" fill="#B55B52"/>
</svg>
